<svg width="403" height="76" viewBox="0 0 403 76" fill="none" xmlns="http://www.w3.org/2000/svg">
<rect width="198.917" height="75.466" rx="5.16667" fill="#333333"/>
<g clip-path="url(#clip0_1_5445)">
<path d="M45.756 47.8348C45.2286 49.0632 44.5772 50.2346 43.8121 51.3309C42.7889 52.7889 41.9518 53.7978 41.3068 54.3584C40.3069 55.2776 39.2347 55.7493 38.0872 55.7756C37.2637 55.7756 36.2706 55.5413 35.114 55.0659C33.9537 54.5927 32.8875 54.3576 31.9125 54.3576C30.89 54.3576 29.7937 54.5927 28.6206 55.0659C27.4459 55.5413 26.4996 55.7892 25.7762 55.8133C24.6762 55.8608 23.5791 55.3763 22.4836 54.3584C21.7851 53.748 20.9118 52.7037 19.8645 51.2239C18.7411 49.6431 17.8173 47.8107 17.094 45.7205C16.3194 43.4639 15.9306 41.2781 15.9306 39.1623C15.9306 36.7384 16.4543 34.6483 17.5031 32.8965C18.3282 31.489 19.4245 30.3799 20.7973 29.5646C22.1441 28.7586 23.6808 28.3249 25.2503 28.3078C26.1243 28.3078 27.2704 28.5783 28.6952 29.1095C30.1155 29.6422 31.0272 29.9127 31.4273 29.9127C31.7256 29.9127 32.7391 29.5962 34.4562 28.9663C36.0807 28.3816 37.4513 28.1398 38.574 28.2355C41.6172 28.4811 43.9033 29.6806 45.423 31.8416C42.7022 33.4902 41.3558 35.7996 41.3829 38.7622C41.407 41.0701 42.2441 42.9907 43.8897 44.515C44.6356 45.2233 45.4682 45.7703 46.3942 46.1583C46.2001 46.724 45.9872 47.2832 45.756 47.8348V47.8348ZM38.7774 20.3737C38.7774 22.1821 38.1166 23.8714 36.7995 25.4341C35.2097 27.2929 33.2876 28.3666 31.2027 28.197C31.1747 27.9696 31.1606 27.7406 31.1605 27.5114C31.1605 25.7754 31.9163 23.9173 33.259 22.3976C33.9295 21.6283 34.781 20.9886 35.8147 20.4785C36.847 19.9759 37.822 19.6979 38.7397 19.6497C38.7661 19.8915 38.7774 20.1334 38.7774 20.373V20.3737Z" fill="#FEFEFF"/>
</g>
<path d="M61.0106 17.0134C62.0904 17.0134 63.0234 17.2171 63.8096 17.6244C64.6053 18.0222 65.2115 18.5953 65.6283 19.3436C66.0545 20.0919 66.2676 20.9728 66.2676 21.9863C66.2676 22.9999 66.0545 23.8808 65.6283 24.6291C65.2115 25.3679 64.6053 25.9363 63.8096 26.3341C63.0234 26.7224 62.0904 26.9166 61.0106 26.9166H57.9274V17.0134H61.0106ZM61.0106 25.851C62.2893 25.851 63.265 25.5147 63.9375 24.8422C64.61 24.1602 64.9463 23.2083 64.9463 21.9863C64.9463 20.7549 64.6053 19.7935 63.9233 19.102C63.2507 18.4106 62.2798 18.0648 61.0106 18.0648H59.2203V25.851H61.0106ZM71.3689 27.0445C70.6395 27.0445 69.9765 26.8787 69.3797 26.5472C68.7924 26.2157 68.3283 25.7468 67.9873 25.1406C67.6558 24.5249 67.49 23.8145 67.49 23.0093C67.49 22.2137 67.6605 21.5127 68.0015 20.9065C68.352 20.2908 68.8256 19.8219 69.4223 19.4999C70.0191 19.1683 70.6869 19.0026 71.4257 19.0026C72.1645 19.0026 72.8323 19.1683 73.4291 19.4999C74.0258 19.8219 74.4947 20.2861 74.8357 20.8923C75.1862 21.4985 75.3614 22.2042 75.3614 23.0093C75.3614 23.8145 75.1815 24.5249 74.8215 25.1406C74.471 25.7468 73.9927 26.2157 73.3865 26.5472C72.7802 26.8787 72.1077 27.0445 71.3689 27.0445ZM71.3689 25.9078C71.833 25.9078 72.2687 25.7989 72.676 25.581C73.0834 25.3632 73.4101 25.0364 73.6564 24.6007C73.9122 24.1649 74.04 23.6345 74.04 23.0093C74.04 22.3842 73.9169 21.8537 73.6706 21.418C73.4244 20.9823 73.1023 20.6602 72.7045 20.4518C72.3066 20.234 71.8756 20.125 71.4115 20.125C70.9379 20.125 70.5022 20.234 70.1043 20.4518C69.716 20.6602 69.4034 20.9823 69.1666 21.418C68.9298 21.8537 68.8114 22.3842 68.8114 23.0093C68.8114 23.644 68.925 24.1792 69.1524 24.6149C69.3892 25.0506 69.7018 25.3774 70.0901 25.5953C70.4785 25.8036 70.9047 25.9078 71.3689 25.9078ZM87.4335 19.1305L85.0039 26.9166H83.6683L81.7928 20.736L79.9173 26.9166H78.5817L76.1379 19.1305H77.4593L79.2495 25.6663L81.1818 19.1305H82.5032L84.3929 25.6805L86.1548 19.1305H87.4335ZM92.5103 18.9884C93.4575 18.9884 94.2248 19.2773 94.8121 19.8551C95.3994 20.4234 95.693 21.2475 95.693 22.3273V26.9166H94.4142V22.512C94.4142 21.7353 94.2201 21.1433 93.8317 20.736C93.4433 20.3192 92.9129 20.1108 92.2404 20.1108C91.5584 20.1108 91.0137 20.324 90.6064 20.7502C90.2086 21.1765 90.0097 21.7969 90.0097 22.6115V26.9166H88.7167V19.1305H90.0097V20.2387C90.2654 19.8409 90.6111 19.533 91.0469 19.3152C91.4921 19.0973 91.9799 18.9884 92.5103 18.9884ZM99.098 16.4025V26.9166H97.805V16.4025H99.098ZM104.697 27.0445C103.968 27.0445 103.305 26.8787 102.708 26.5472C102.121 26.2157 101.657 25.7468 101.316 25.1406C100.984 24.5249 100.819 23.8145 100.819 23.0093C100.819 22.2137 100.989 21.5127 101.33 20.9065C101.681 20.2908 102.154 19.8219 102.751 19.4999C103.348 19.1683 104.015 19.0026 104.754 19.0026C105.493 19.0026 106.161 19.1683 106.758 19.4999C107.354 19.8219 107.823 20.2861 108.164 20.8923C108.515 21.4985 108.69 22.2042 108.69 23.0093C108.69 23.8145 108.51 24.5249 108.15 25.1406C107.8 25.7468 107.321 26.2157 106.715 26.5472C106.109 26.8787 105.436 27.0445 104.697 27.0445ZM104.697 25.9078C105.162 25.9078 105.597 25.7989 106.005 25.581C106.412 25.3632 106.739 25.0364 106.985 24.6007C107.241 24.1649 107.369 23.6345 107.369 23.0093C107.369 22.3842 107.245 21.8537 106.999 21.418C106.753 20.9823 106.431 20.6602 106.033 20.4518C105.635 20.234 105.204 20.125 104.74 20.125C104.266 20.125 103.831 20.234 103.433 20.4518C103.045 20.6602 102.732 20.9823 102.495 21.418C102.258 21.8537 102.14 22.3842 102.14 23.0093C102.14 23.644 102.254 24.1792 102.481 24.6149C102.718 25.0506 103.03 25.3774 103.419 25.5953C103.807 25.8036 104.233 25.9078 104.697 25.9078ZM109.907 22.9951C109.907 22.1995 110.068 21.5033 110.39 20.9065C110.712 20.3003 111.152 19.8314 111.711 19.4999C112.28 19.1683 112.91 19.0026 113.601 19.0026C114.283 19.0026 114.875 19.1494 115.377 19.443C115.879 19.7367 116.253 20.1061 116.5 20.5513V19.1305H117.807V26.9166H116.5V25.4674C116.244 25.922 115.86 26.3009 115.349 26.604C114.847 26.8977 114.259 27.0445 113.587 27.0445C112.895 27.0445 112.27 26.874 111.711 26.533C111.152 26.192 110.712 25.7137 110.39 25.098C110.068 24.4823 109.907 23.7813 109.907 22.9951ZM116.5 23.0093C116.5 22.4221 116.381 21.9106 116.144 21.4748C115.908 21.0391 115.585 20.7076 115.178 20.4803C114.78 20.2434 114.34 20.125 113.857 20.125C113.374 20.125 112.933 20.2387 112.535 20.466C112.138 20.6934 111.82 21.0249 111.583 21.4606C111.347 21.8963 111.228 22.4078 111.228 22.9951C111.228 23.5919 111.347 24.1128 111.583 24.558C111.82 24.9938 112.138 25.33 112.535 25.5668C112.933 25.7942 113.374 25.9078 113.857 25.9078C114.34 25.9078 114.78 25.7942 115.178 25.5668C115.585 25.33 115.908 24.9938 116.144 24.558C116.381 24.1128 116.5 23.5966 116.5 23.0093ZM119.509 22.9951C119.509 22.1995 119.67 21.5033 119.992 20.9065C120.314 20.3003 120.754 19.8314 121.313 19.4999C121.881 19.1683 122.516 19.0026 123.217 19.0026C123.823 19.0026 124.387 19.1447 124.908 19.4288C125.429 19.7035 125.827 20.0682 126.101 20.5229V16.4025H127.408V26.9166H126.101V25.4532C125.846 25.9173 125.467 26.3009 124.965 26.604C124.463 26.8977 123.875 27.0445 123.203 27.0445C122.511 27.0445 121.881 26.874 121.313 26.533C120.754 26.192 120.314 25.7137 119.992 25.098C119.67 24.4823 119.509 23.7813 119.509 22.9951ZM126.101 23.0093C126.101 22.4221 125.983 21.9106 125.746 21.4748C125.509 21.0391 125.187 20.7076 124.78 20.4803C124.382 20.2434 123.942 20.125 123.459 20.125C122.975 20.125 122.535 20.2387 122.137 20.466C121.739 20.6934 121.422 21.0249 121.185 21.4606C120.948 21.8963 120.83 22.4078 120.83 22.9951C120.83 23.5919 120.948 24.1128 121.185 24.558C121.422 24.9938 121.739 25.33 122.137 25.5668C122.535 25.7942 122.975 25.9078 123.459 25.9078C123.942 25.9078 124.382 25.7942 124.78 25.5668C125.187 25.33 125.509 24.9938 125.746 24.558C125.983 24.1128 126.101 23.5966 126.101 23.0093ZM136.777 27.0445C136.048 27.0445 135.385 26.8787 134.788 26.5472C134.201 26.2157 133.737 25.7468 133.396 25.1406C133.064 24.5249 132.898 23.8145 132.898 23.0093C132.898 22.2137 133.069 21.5127 133.41 20.9065C133.76 20.2908 134.234 19.8219 134.831 19.4999C135.427 19.1683 136.095 19.0026 136.834 19.0026C137.573 19.0026 138.241 19.1683 138.837 19.4999C139.434 19.8219 139.903 20.2861 140.244 20.8923C140.594 21.4985 140.77 22.2042 140.77 23.0093C140.77 23.8145 140.59 24.5249 140.23 25.1406C139.879 25.7468 139.401 26.2157 138.795 26.5472C138.189 26.8787 137.516 27.0445 136.777 27.0445ZM136.777 25.9078C137.241 25.9078 137.677 25.7989 138.084 25.581C138.492 25.3632 138.818 25.0364 139.065 24.6007C139.32 24.1649 139.448 23.6345 139.448 23.0093C139.448 22.3842 139.325 21.8537 139.079 21.418C138.833 20.9823 138.511 20.6602 138.113 20.4518C137.715 20.234 137.284 20.125 136.82 20.125C136.346 20.125 135.91 20.234 135.513 20.4518C135.124 20.6602 134.812 20.9823 134.575 21.418C134.338 21.8537 134.22 22.3842 134.22 23.0093C134.22 23.644 134.333 24.1792 134.561 24.6149C134.797 25.0506 135.11 25.3774 135.498 25.5953C135.887 25.8036 136.313 25.9078 136.777 25.9078ZM146.263 18.9884C147.211 18.9884 147.978 19.2773 148.565 19.8551C149.152 20.4234 149.446 21.2475 149.446 22.3273V26.9166H148.167V22.512C148.167 21.7353 147.973 21.1433 147.585 20.736C147.196 20.3192 146.666 20.1108 145.993 20.1108C145.311 20.1108 144.767 20.324 144.359 20.7502C143.962 21.1765 143.763 21.7969 143.763 22.6115V26.9166H142.47V19.1305H143.763V20.2387C144.018 19.8409 144.364 19.533 144.8 19.3152C145.245 19.0973 145.733 18.9884 146.263 18.9884ZM156.923 20.1961V24.7854C156.923 25.1643 157.004 25.4342 157.165 25.5953C157.326 25.7468 157.605 25.8226 158.003 25.8226H158.955V26.9166H157.79C157.07 26.9166 156.53 26.7509 156.17 26.4193C155.81 26.0878 155.63 25.5432 155.63 24.7854V20.1961H154.621V19.1305H155.63V17.1697H156.923V19.1305H158.955V20.1961H156.923ZM164.386 18.9884C164.973 18.9884 165.504 19.1163 165.978 19.372C166.451 19.6183 166.821 19.9924 167.086 20.4945C167.36 20.9965 167.498 21.6074 167.498 22.3273V26.9166H166.219V22.512C166.219 21.7353 166.025 21.1433 165.637 20.736C165.248 20.3192 164.718 20.1108 164.045 20.1108C163.363 20.1108 162.819 20.324 162.411 20.7502C162.013 21.1765 161.814 21.7969 161.814 22.6115V26.9166H160.522V16.4025H161.814V20.2387C162.07 19.8409 162.421 19.533 162.866 19.3152C163.321 19.0973 163.827 18.9884 164.386 18.9884ZM176.714 22.7252C176.714 22.9714 176.7 23.2319 176.671 23.5066H170.448C170.496 24.2739 170.756 24.8754 171.23 25.3111C171.713 25.7373 172.295 25.9505 172.977 25.9505C173.536 25.9505 174 25.8226 174.37 25.5668C174.749 25.3016 175.014 24.9511 175.165 24.5154H176.558C176.349 25.2637 175.933 25.8747 175.307 26.3483C174.682 26.8124 173.906 27.0445 172.977 27.0445C172.238 27.0445 171.575 26.8787 170.988 26.5472C170.41 26.2157 169.956 25.7468 169.624 25.1406C169.293 24.5249 169.127 23.8145 169.127 23.0093C169.127 22.2042 169.288 21.4985 169.61 20.8923C169.932 20.2861 170.382 19.8219 170.96 19.4999C171.547 19.1683 172.219 19.0026 172.977 19.0026C173.716 19.0026 174.37 19.1636 174.938 19.4857C175.506 19.8077 175.942 20.2529 176.245 20.8213C176.558 21.3801 176.714 22.0148 176.714 22.7252ZM175.378 22.4552C175.378 21.9627 175.27 21.5411 175.052 21.1907C174.834 20.8307 174.535 20.5608 174.157 20.3808C173.787 20.1913 173.375 20.0966 172.92 20.0966C172.267 20.0966 171.708 20.305 171.244 20.7218C170.789 21.1386 170.529 21.7164 170.462 22.4552H175.378Z" fill="#B3B3B3"/>
<path d="M67.0426 50.982H61.0286L59.9953 53.9166H57.536L62.682 39.5326H65.41L70.556 53.9166H68.076L67.0426 50.982ZM66.3813 49.06L64.046 42.3846L61.69 49.06H66.3813ZM75.1495 44.2033C75.549 43.6797 76.0932 43.2388 76.7821 42.8806C77.471 42.5224 78.2495 42.3433 79.1175 42.3433C80.1095 42.3433 81.0119 42.5913 81.8248 43.0873C82.6515 43.5695 83.299 44.2515 83.7675 45.1333C84.2359 46.0151 84.4701 47.0277 84.4701 48.1713C84.4701 49.3148 84.2359 50.3413 83.7675 51.2506C83.299 52.1462 82.6515 52.8488 81.8248 53.3586C81.0119 53.8546 80.1095 54.1026 79.1175 54.1026C78.2495 54.1026 77.4779 53.9304 76.8028 53.586C76.1277 53.2277 75.5766 52.7868 75.1495 52.2633V59.3313H72.7935V42.5293H75.1495V44.2033ZM82.0728 48.1713C82.0728 47.386 81.9075 46.7108 81.5768 46.146C81.2599 45.5673 80.8328 45.1333 80.2955 44.844C79.7719 44.5408 79.207 44.3893 78.6008 44.3893C78.0084 44.3893 77.4435 44.5408 76.9061 44.844C76.3826 45.1471 75.9555 45.588 75.6248 46.1666C75.3079 46.7453 75.1495 47.4273 75.1495 48.2126C75.1495 48.998 75.3079 49.6868 75.6248 50.2793C75.9555 50.858 76.3826 51.2988 76.9061 51.602C77.4435 51.9051 78.0084 52.0566 78.6008 52.0566C79.207 52.0566 79.7719 51.9051 80.2955 51.602C80.8328 51.2851 81.2599 50.8304 81.5768 50.238C81.9075 49.6455 82.0728 48.9566 82.0728 48.1713ZM89.156 44.2033C89.5555 43.6797 90.0998 43.2388 90.7886 42.8806C91.4775 42.5224 92.256 42.3433 93.124 42.3433C94.116 42.3433 95.0184 42.5913 95.8313 43.0873C96.658 43.5695 97.3055 44.2515 97.774 45.1333C98.2424 46.0151 98.4766 47.0277 98.4766 48.1713C98.4766 49.3148 98.2424 50.3413 97.774 51.2506C97.3055 52.1462 96.658 52.8488 95.8313 53.3586C95.0184 53.8546 94.116 54.1026 93.124 54.1026C92.256 54.1026 91.4844 53.9304 90.8093 53.586C90.1342 53.2277 89.5831 52.7868 89.156 52.2633V59.3313H86.8V42.5293H89.156V44.2033ZM96.0793 48.1713C96.0793 47.386 95.914 46.7108 95.5833 46.146C95.2664 45.5673 94.8393 45.1333 94.302 44.844C93.7784 44.5408 93.2135 44.3893 92.6073 44.3893C92.0149 44.3893 91.45 44.5408 90.9126 44.844C90.3891 45.1471 89.962 45.588 89.6313 46.1666C89.3144 46.7453 89.156 47.4273 89.156 48.2126C89.156 48.998 89.3144 49.6868 89.6313 50.2793C89.962 50.858 90.3891 51.2988 90.9126 51.602C91.45 51.9051 92.0149 52.0566 92.6073 52.0566C93.2135 52.0566 93.7784 51.9051 94.302 51.602C94.8393 51.2851 95.2664 50.8304 95.5833 50.238C95.914 49.6455 96.0793 48.9566 96.0793 48.1713ZM110.908 54.0613C109.943 54.0613 109.075 53.896 108.304 53.5653C107.532 53.2208 106.926 52.7386 106.485 52.1186C106.044 51.4986 105.824 50.7753 105.824 49.9486H108.345C108.4 50.5686 108.641 51.0784 109.068 51.478C109.509 51.8775 110.122 52.0773 110.908 52.0773C111.721 52.0773 112.354 51.8844 112.809 51.4986C113.264 51.0991 113.491 50.5893 113.491 49.9693C113.491 49.4871 113.346 49.0944 113.057 48.7913C112.781 48.4882 112.43 48.254 112.003 48.0886C111.59 47.9233 111.011 47.7442 110.267 47.5513C109.33 47.3033 108.565 47.0553 107.973 46.8073C107.394 46.5455 106.898 46.146 106.485 45.6086C106.072 45.0713 105.865 44.3548 105.865 43.4593C105.865 42.6326 106.072 41.9093 106.485 41.2893C106.898 40.6693 107.477 40.194 108.221 39.8633C108.965 39.5326 109.826 39.3673 110.804 39.3673C112.196 39.3673 113.333 39.7186 114.214 40.4213C115.11 41.1102 115.606 42.0608 115.702 43.2733H113.098C113.057 42.7497 112.809 42.302 112.354 41.93C111.9 41.558 111.3 41.372 110.556 41.372C109.881 41.372 109.33 41.5442 108.903 41.8886C108.476 42.2331 108.262 42.7291 108.262 43.3766C108.262 43.8175 108.393 44.1826 108.655 44.472C108.931 44.7475 109.275 44.968 109.688 45.1333C110.102 45.2986 110.667 45.4777 111.383 45.6706C112.334 45.9324 113.105 46.1942 113.698 46.456C114.304 46.7177 114.814 47.1242 115.227 47.6753C115.654 48.2126 115.868 48.936 115.868 49.8453C115.868 50.5755 115.668 51.2644 115.268 51.912C114.883 52.5595 114.311 53.0831 113.553 53.4826C112.809 53.8684 111.927 54.0613 110.908 54.0613ZM121.396 44.4513V50.7546C121.396 51.1817 121.493 51.4917 121.686 51.6846C121.892 51.8637 122.237 51.9533 122.719 51.9533H124.166V53.9166H122.306C121.245 53.9166 120.432 53.6686 119.867 53.1726C119.302 52.6766 119.02 51.8706 119.02 50.7546V44.4513H117.676V42.5293H119.02V39.698H121.396V42.5293H124.166V44.4513H121.396ZM131.276 54.1026C130.202 54.1026 129.23 53.8615 128.362 53.3793C127.494 52.8833 126.812 52.1944 126.316 51.3126C125.82 50.4171 125.572 49.3837 125.572 48.2126C125.572 47.0553 125.827 46.0288 126.337 45.1333C126.847 44.2377 127.543 43.5488 128.424 43.0666C129.306 42.5844 130.291 42.3433 131.38 42.3433C132.468 42.3433 133.453 42.5844 134.335 43.0666C135.217 43.5488 135.913 44.2377 136.422 45.1333C136.932 46.0288 137.187 47.0553 137.187 48.2126C137.187 49.37 136.925 50.3964 136.402 51.292C135.878 52.1875 135.162 52.8833 134.252 53.3793C133.357 53.8615 132.365 54.1026 131.276 54.1026ZM131.276 52.0566C131.883 52.0566 132.448 51.912 132.971 51.6226C133.508 51.3333 133.942 50.8993 134.273 50.3206C134.604 49.742 134.769 49.0393 134.769 48.2126C134.769 47.386 134.611 46.6902 134.294 46.1253C133.977 45.5466 133.557 45.1126 133.033 44.8233C132.51 44.534 131.945 44.3893 131.338 44.3893C130.732 44.3893 130.167 44.534 129.644 44.8233C129.134 45.1126 128.728 45.5466 128.424 46.1253C128.121 46.6902 127.97 47.386 127.97 48.2126C127.97 49.4388 128.28 50.3895 128.9 51.0646C129.534 51.726 130.326 52.0566 131.276 52.0566ZM141.872 44.1826C142.217 43.604 142.671 43.1562 143.236 42.8393C143.815 42.5086 144.497 42.3433 145.282 42.3433V44.782H144.683C143.76 44.782 143.057 45.0162 142.575 45.4846C142.106 45.9531 141.872 46.766 141.872 47.9233V53.9166H139.516V42.5293H141.872V44.1826ZM157.884 47.944C157.884 48.3711 157.857 48.7568 157.802 49.1013H149.101C149.17 50.0106 149.508 50.7408 150.114 51.292C150.72 51.8431 151.464 52.1186 152.346 52.1186C153.613 52.1186 154.509 51.5882 155.032 50.5273H157.574C157.23 51.5744 156.603 52.4355 155.694 53.1106C154.798 53.772 153.682 54.1026 152.346 54.1026C151.257 54.1026 150.279 53.8615 149.411 53.3793C148.557 52.8833 147.882 52.1944 147.386 51.3126C146.904 50.4171 146.662 49.3837 146.662 48.2126C146.662 47.0415 146.897 46.0151 147.365 45.1333C147.847 44.2377 148.516 43.5488 149.37 43.0666C150.238 42.5844 151.23 42.3433 152.346 42.3433C153.42 42.3433 154.378 42.5775 155.218 43.046C156.059 43.5144 156.713 44.1757 157.182 45.03C157.65 45.8704 157.884 46.8417 157.884 47.944ZM155.425 47.2C155.411 46.332 155.101 45.6362 154.495 45.1126C153.889 44.5891 153.138 44.3273 152.242 44.3273C151.43 44.3273 150.734 44.5891 150.155 45.1126C149.576 45.6224 149.232 46.3182 149.122 47.2H155.425Z" fill="#FEFEFF"/>
<rect x="209.25" width="193.75" height="75.466" rx="5.16667" fill="#333333"/>
<g clip-path="url(#clip1_1_5445)">
<path d="M241.626 37.0675L228.262 23.6662L245.265 33.4281L241.626 37.0675V37.0675ZM224.773 22.8788C223.985 23.2911 223.458 24.0413 223.458 25.0178V51.7398C223.458 52.7163 223.985 53.4665 224.773 53.8788L240.315 38.3757L224.773 22.8788ZM250.523 36.5405L246.956 34.4759L242.977 38.3819L246.956 42.2879L250.596 40.2233C251.685 39.3568 251.685 37.4069 250.523 36.5405V36.5405ZM228.262 53.0976L245.265 43.3357L241.626 39.6963L228.262 53.0976V53.0976Z" fill="#FEFEFF"/>
</g>
<path d="M265.094 17.0134C266.174 17.0134 267.107 17.2171 267.893 17.6244C268.689 18.0222 269.295 18.5953 269.712 19.3436C270.138 20.0919 270.351 20.9728 270.351 21.9863C270.351 22.9999 270.138 23.8808 269.712 24.6291C269.295 25.3679 268.689 25.9363 267.893 26.3341C267.107 26.7224 266.174 26.9166 265.094 26.9166H262.011V17.0134H265.094ZM265.094 25.851C266.373 25.851 267.348 25.5147 268.021 24.8422C268.693 24.1602 269.03 23.2083 269.03 21.9863C269.03 20.7549 268.689 19.7935 268.007 19.102C267.334 18.4106 266.363 18.0648 265.094 18.0648H263.304V25.851H265.094ZM275.452 27.0445C274.723 27.0445 274.06 26.8787 273.463 26.5472C272.876 26.2157 272.412 25.7468 272.071 25.1406C271.739 24.5249 271.573 23.8145 271.573 23.0093C271.573 22.2137 271.744 21.5127 272.085 20.9065C272.435 20.2908 272.909 19.8219 273.506 19.4999C274.102 19.1683 274.77 19.0026 275.509 19.0026C276.248 19.0026 276.916 19.1683 277.512 19.4999C278.109 19.8219 278.578 20.2861 278.919 20.8923C279.27 21.4985 279.445 22.2042 279.445 23.0093C279.445 23.8145 279.265 24.5249 278.905 25.1406C278.554 25.7468 278.076 26.2157 277.47 26.5472C276.864 26.8787 276.191 27.0445 275.452 27.0445ZM275.452 25.9078C275.916 25.9078 276.352 25.7989 276.759 25.581C277.167 25.3632 277.494 25.0364 277.74 24.6007C277.996 24.1649 278.123 23.6345 278.123 23.0093C278.123 22.3842 278 21.8537 277.754 21.418C277.508 20.9823 277.186 20.6602 276.788 20.4518C276.39 20.234 275.959 20.125 275.495 20.125C275.021 20.125 274.586 20.234 274.188 20.4518C273.799 20.6602 273.487 20.9823 273.25 21.418C273.013 21.8537 272.895 22.3842 272.895 23.0093C272.895 23.644 273.008 24.1792 273.236 24.6149C273.473 25.0506 273.785 25.3774 274.174 25.5953C274.562 25.8036 274.988 25.9078 275.452 25.9078ZM291.517 19.1305L289.087 26.9166H287.752L285.876 20.736L284.001 26.9166H282.665L280.221 19.1305H281.543L283.333 25.6663L285.265 19.1305H286.587L288.476 25.6805L290.238 19.1305H291.517ZM296.594 18.9884C297.541 18.9884 298.308 19.2773 298.895 19.8551C299.483 20.4234 299.776 21.2475 299.776 22.3273V26.9166H298.498V22.512C298.498 21.7353 298.303 21.1433 297.915 20.736C297.527 20.3192 296.996 20.1108 296.324 20.1108C295.642 20.1108 295.097 20.324 294.69 20.7502C294.292 21.1765 294.093 21.7969 294.093 22.6115V26.9166H292.8V19.1305H294.093V20.2387C294.349 19.8409 294.695 19.533 295.13 19.3152C295.575 19.0973 296.063 18.9884 296.594 18.9884ZM303.181 16.4025V26.9166H301.888V16.4025H303.181ZM308.781 27.0445C308.051 27.0445 307.388 26.8787 306.792 26.5472C306.204 26.2157 305.74 25.7468 305.399 25.1406C305.068 24.5249 304.902 23.8145 304.902 23.0093C304.902 22.2137 305.072 21.5127 305.413 20.9065C305.764 20.2908 306.237 19.8219 306.834 19.4999C307.431 19.1683 308.099 19.0026 308.838 19.0026C309.576 19.0026 310.244 19.1683 310.841 19.4999C311.438 19.8219 311.907 20.2861 312.248 20.8923C312.598 21.4985 312.773 22.2042 312.773 23.0093C312.773 23.8145 312.593 24.5249 312.233 25.1406C311.883 25.7468 311.405 26.2157 310.798 26.5472C310.192 26.8787 309.52 27.0445 308.781 27.0445ZM308.781 25.9078C309.245 25.9078 309.681 25.7989 310.088 25.581C310.495 25.3632 310.822 25.0364 311.068 24.6007C311.324 24.1649 311.452 23.6345 311.452 23.0093C311.452 22.3842 311.329 21.8537 311.083 21.418C310.836 20.9823 310.514 20.6602 310.116 20.4518C309.719 20.234 309.288 20.125 308.823 20.125C308.35 20.125 307.914 20.234 307.516 20.4518C307.128 20.6602 306.815 20.9823 306.578 21.418C306.342 21.8537 306.223 22.3842 306.223 23.0093C306.223 23.644 306.337 24.1792 306.564 24.6149C306.801 25.0506 307.114 25.3774 307.502 25.5953C307.89 25.8036 308.317 25.9078 308.781 25.9078ZM313.99 22.9951C313.99 22.1995 314.151 21.5033 314.473 20.9065C314.795 20.3003 315.236 19.8314 315.795 19.4999C316.363 19.1683 316.993 19.0026 317.684 19.0026C318.366 19.0026 318.958 19.1494 319.46 19.443C319.962 19.7367 320.337 20.1061 320.583 20.5513V19.1305H321.89V26.9166H320.583V25.4674C320.327 25.922 319.944 26.3009 319.432 26.604C318.93 26.8977 318.343 27.0445 317.67 27.0445C316.979 27.0445 316.354 26.874 315.795 26.533C315.236 26.192 314.795 25.7137 314.473 25.098C314.151 24.4823 313.99 23.7813 313.99 22.9951ZM320.583 23.0093C320.583 22.4221 320.465 21.9106 320.228 21.4748C319.991 21.0391 319.669 20.7076 319.262 20.4803C318.864 20.2434 318.423 20.125 317.94 20.125C317.457 20.125 317.017 20.2387 316.619 20.466C316.221 20.6934 315.904 21.0249 315.667 21.4606C315.43 21.8963 315.312 22.4078 315.312 22.9951C315.312 23.5919 315.43 24.1128 315.667 24.558C315.904 24.9938 316.221 25.33 316.619 25.5668C317.017 25.7942 317.457 25.9078 317.94 25.9078C318.423 25.9078 318.864 25.7942 319.262 25.5668C319.669 25.33 319.991 24.9938 320.228 24.558C320.465 24.1128 320.583 23.5966 320.583 23.0093ZM323.592 22.9951C323.592 22.1995 323.753 21.5033 324.075 20.9065C324.397 20.3003 324.838 19.8314 325.396 19.4999C325.965 19.1683 326.599 19.0026 327.3 19.0026C327.907 19.0026 328.47 19.1447 328.991 19.4288C329.512 19.7035 329.91 20.0682 330.185 20.5229V16.4025H331.492V26.9166H330.185V25.4532C329.929 25.9173 329.55 26.3009 329.048 26.604C328.546 26.8977 327.959 27.0445 327.286 27.0445C326.595 27.0445 325.965 26.874 325.396 26.533C324.838 26.192 324.397 25.7137 324.075 25.098C323.753 24.4823 323.592 23.7813 323.592 22.9951ZM330.185 23.0093C330.185 22.4221 330.066 21.9106 329.829 21.4748C329.593 21.0391 329.271 20.7076 328.863 20.4803C328.465 20.2434 328.025 20.125 327.542 20.125C327.059 20.125 326.618 20.2387 326.221 20.466C325.823 20.6934 325.505 21.0249 325.269 21.4606C325.032 21.8963 324.913 22.4078 324.913 22.9951C324.913 23.5919 325.032 24.1128 325.269 24.558C325.505 24.9938 325.823 25.33 326.221 25.5668C326.618 25.7942 327.059 25.9078 327.542 25.9078C328.025 25.9078 328.465 25.7942 328.863 25.5668C329.271 25.33 329.593 24.9938 329.829 24.558C330.066 24.1128 330.185 23.5966 330.185 23.0093ZM340.861 27.0445C340.131 27.0445 339.468 26.8787 338.871 26.5472C338.284 26.2157 337.82 25.7468 337.479 25.1406C337.147 24.5249 336.982 23.8145 336.982 23.0093C336.982 22.2137 337.152 21.5127 337.493 20.9065C337.844 20.2908 338.317 19.8219 338.914 19.4999C339.511 19.1683 340.179 19.0026 340.917 19.0026C341.656 19.0026 342.324 19.1683 342.921 19.4999C343.517 19.8219 343.986 20.2861 344.327 20.8923C344.678 21.4985 344.853 22.2042 344.853 23.0093C344.853 23.8145 344.673 24.5249 344.313 25.1406C343.963 25.7468 343.484 26.2157 342.878 26.5472C342.272 26.8787 341.599 27.0445 340.861 27.0445ZM340.861 25.9078C341.325 25.9078 341.76 25.7989 342.168 25.581C342.575 25.3632 342.902 25.0364 343.148 24.6007C343.404 24.1649 343.532 23.6345 343.532 23.0093C343.532 22.3842 343.409 21.8537 343.162 21.418C342.916 20.9823 342.594 20.6602 342.196 20.4518C341.798 20.234 341.367 20.125 340.903 20.125C340.43 20.125 339.994 20.234 339.596 20.4518C339.208 20.6602 338.895 20.9823 338.658 21.418C338.421 21.8537 338.303 22.3842 338.303 23.0093C338.303 23.644 338.417 24.1792 338.644 24.6149C338.881 25.0506 339.193 25.3774 339.582 25.5953C339.97 25.8036 340.396 25.9078 340.861 25.9078ZM350.347 18.9884C351.294 18.9884 352.061 19.2773 352.648 19.8551C353.236 20.4234 353.529 21.2475 353.529 22.3273V26.9166H352.251V22.512C352.251 21.7353 352.056 21.1433 351.668 20.736C351.28 20.3192 350.749 20.1108 350.077 20.1108C349.395 20.1108 348.85 20.324 348.443 20.7502C348.045 21.1765 347.846 21.7969 347.846 22.6115V26.9166H346.553V19.1305H347.846V20.2387C348.102 19.8409 348.448 19.533 348.883 19.3152C349.328 19.0973 349.816 18.9884 350.347 18.9884ZM361.007 20.1961V24.7854C361.007 25.1643 361.087 25.4342 361.248 25.5953C361.409 25.7468 361.689 25.8226 362.086 25.8226H363.038V26.9166H361.873C361.153 26.9166 360.613 26.7509 360.253 26.4193C359.894 26.0878 359.714 25.5432 359.714 24.7854V20.1961H358.705V19.1305H359.714V17.1697H361.007V19.1305H363.038V20.1961H361.007ZM368.47 18.9884C369.057 18.9884 369.587 19.1163 370.061 19.372C370.534 19.6183 370.904 19.9924 371.169 20.4945C371.444 20.9965 371.581 21.6074 371.581 22.3273V26.9166H370.302V22.512C370.302 21.7353 370.108 21.1433 369.72 20.736C369.332 20.3192 368.801 20.1108 368.129 20.1108C367.447 20.1108 366.902 20.324 366.495 20.7502C366.097 21.1765 365.898 21.7969 365.898 22.6115V26.9166H364.605V16.4025H365.898V20.2387C366.154 19.8409 366.504 19.533 366.949 19.3152C367.404 19.0973 367.911 18.9884 368.47 18.9884ZM380.797 22.7252C380.797 22.9714 380.783 23.2319 380.755 23.5066H374.532C374.579 24.2739 374.839 24.8754 375.313 25.3111C375.796 25.7373 376.379 25.9505 377.061 25.9505C377.619 25.9505 378.084 25.8226 378.453 25.5668C378.832 25.3016 379.097 24.9511 379.249 24.5154H380.641C380.433 25.2637 380.016 25.8747 379.391 26.3483C378.766 26.8124 377.989 27.0445 377.061 27.0445C376.322 27.0445 375.659 26.8787 375.071 26.5472C374.494 26.2157 374.039 25.7468 373.707 25.1406C373.376 24.5249 373.21 23.8145 373.21 23.0093C373.21 22.2042 373.371 21.4985 373.693 20.8923C374.015 20.2861 374.465 19.8219 375.043 19.4999C375.63 19.1683 376.303 19.0026 377.061 19.0026C377.799 19.0026 378.453 19.1636 379.021 19.4857C379.59 19.8077 380.025 20.2529 380.329 20.8213C380.641 21.3801 380.797 22.0148 380.797 22.7252ZM379.462 22.4552C379.462 21.9627 379.353 21.5411 379.135 21.1907C378.917 20.8307 378.619 20.5608 378.24 20.3808C377.87 20.1913 377.458 20.0966 377.004 20.0966C376.35 20.0966 375.791 20.305 375.327 20.7218C374.873 21.1386 374.612 21.7164 374.546 22.4552H379.462Z" fill="#B3B3B3"/>
<path d="M272.862 43.6866C272.49 42.9702 271.973 42.4328 271.312 42.0746C270.651 41.7026 269.886 41.5166 269.018 41.5166C268.067 41.5166 267.22 41.7302 266.476 42.1573C265.732 42.5844 265.146 43.1906 264.719 43.976C264.306 44.7613 264.099 45.6706 264.099 46.704C264.099 47.7373 264.306 48.6535 264.719 49.4526C265.146 50.238 265.732 50.8442 266.476 51.2713C267.22 51.6984 268.067 51.912 269.018 51.912C270.299 51.912 271.34 51.5537 272.139 50.8373C272.938 50.1208 273.427 49.1495 273.606 47.9233H268.212V46.0426H276.127V47.882C275.976 48.998 275.576 50.0244 274.929 50.9613C274.295 51.8982 273.461 52.6491 272.428 53.214C271.408 53.7651 270.272 54.0406 269.018 54.0406C267.668 54.0406 266.435 53.7306 265.319 53.1106C264.203 52.4768 263.314 51.602 262.653 50.486C262.005 49.37 261.681 48.1093 261.681 46.704C261.681 45.2986 262.005 44.038 262.653 42.922C263.314 41.806 264.203 40.938 265.319 40.318C266.448 39.6842 267.682 39.3673 269.018 39.3673C270.547 39.3673 271.904 39.7462 273.089 40.504C274.288 41.248 275.156 42.3088 275.693 43.6866H272.862ZM283.39 54.1026C282.316 54.1026 281.344 53.8615 280.476 53.3793C279.608 52.8833 278.926 52.1944 278.43 51.3126C277.934 50.4171 277.686 49.3837 277.686 48.2126C277.686 47.0553 277.941 46.0288 278.451 45.1333C278.961 44.2377 279.657 43.5488 280.538 43.0666C281.42 42.5844 282.405 42.3433 283.494 42.3433C284.582 42.3433 285.567 42.5844 286.449 43.0666C287.331 43.5488 288.027 44.2377 288.536 45.1333C289.046 46.0288 289.301 47.0553 289.301 48.2126C289.301 49.37 289.039 50.3964 288.516 51.292C287.992 52.1875 287.276 52.8833 286.366 53.3793C285.471 53.8615 284.479 54.1026 283.39 54.1026ZM283.39 52.0566C283.997 52.0566 284.562 51.912 285.085 51.6226C285.622 51.3333 286.056 50.8993 286.387 50.3206C286.718 49.742 286.883 49.0393 286.883 48.2126C286.883 47.386 286.725 46.6902 286.408 46.1253C286.091 45.5466 285.671 45.1126 285.147 44.8233C284.624 44.534 284.059 44.3893 283.452 44.3893C282.846 44.3893 282.281 44.534 281.758 44.8233C281.248 45.1126 280.842 45.5466 280.538 46.1253C280.235 46.6902 280.084 47.386 280.084 48.2126C280.084 49.4388 280.394 50.3895 281.014 51.0646C281.648 51.726 282.44 52.0566 283.39 52.0566ZM296.569 54.1026C295.495 54.1026 294.523 53.8615 293.655 53.3793C292.787 52.8833 292.105 52.1944 291.609 51.3126C291.113 50.4171 290.865 49.3837 290.865 48.2126C290.865 47.0553 291.12 46.0288 291.63 45.1333C292.14 44.2377 292.836 43.5488 293.717 43.0666C294.599 42.5844 295.584 42.3433 296.673 42.3433C297.761 42.3433 298.746 42.5844 299.628 43.0666C300.51 43.5488 301.206 44.2377 301.715 45.1333C302.225 46.0288 302.48 47.0553 302.48 48.2126C302.48 49.37 302.218 50.3964 301.695 51.292C301.171 52.1875 300.455 52.8833 299.545 53.3793C298.65 53.8615 297.658 54.1026 296.569 54.1026ZM296.569 52.0566C297.176 52.0566 297.741 51.912 298.264 51.6226C298.801 51.3333 299.235 50.8993 299.566 50.3206C299.897 49.742 300.062 49.0393 300.062 48.2126C300.062 47.386 299.904 46.6902 299.587 46.1253C299.27 45.5466 298.85 45.1126 298.326 44.8233C297.803 44.534 297.238 44.3893 296.631 44.3893C296.025 44.3893 295.46 44.534 294.937 44.8233C294.427 45.1126 294.021 45.5466 293.717 46.1253C293.414 46.6902 293.263 47.386 293.263 48.2126C293.263 49.4388 293.573 50.3895 294.193 51.0646C294.827 51.726 295.619 52.0566 296.569 52.0566ZM309.397 42.3433C310.279 42.3433 311.057 42.5224 311.732 42.8806C312.421 43.2251 312.959 43.6591 313.344 44.1826V42.5293H315.721V54.1026C315.721 55.1497 315.501 56.0797 315.06 56.8926C314.619 57.7193 313.978 58.3668 313.138 58.8353C312.311 59.3037 311.319 59.538 310.162 59.538C308.619 59.538 307.337 59.1728 306.318 58.4426C305.298 57.7262 304.72 56.748 304.582 55.508H306.917C307.096 56.1004 307.475 56.5757 308.054 56.934C308.646 57.306 309.349 57.492 310.162 57.492C311.112 57.492 311.877 57.2026 312.456 56.624C313.048 56.0453 313.344 55.2048 313.344 54.1026V52.2013C312.945 52.7386 312.401 53.1933 311.712 53.5653C311.037 53.9235 310.265 54.1026 309.397 54.1026C308.405 54.1026 307.496 53.8546 306.669 53.3586C305.856 52.8488 305.209 52.1462 304.726 51.2506C304.258 50.3413 304.024 49.3148 304.024 48.1713C304.024 47.0277 304.258 46.0151 304.726 45.1333C305.209 44.2515 305.856 43.5695 306.669 43.0873C307.496 42.5913 308.405 42.3433 309.397 42.3433ZM313.344 48.2126C313.344 47.4273 313.179 46.7453 312.848 46.1666C312.532 45.588 312.111 45.1471 311.588 44.844C311.064 44.5408 310.499 44.3893 309.893 44.3893C309.287 44.3893 308.722 44.5408 308.198 44.844C307.675 45.1333 307.248 45.5673 306.917 46.146C306.6 46.7108 306.442 47.386 306.442 48.1713C306.442 48.9566 306.6 49.6455 306.917 50.238C307.248 50.8304 307.675 51.2851 308.198 51.602C308.736 51.9051 309.301 52.0566 309.893 52.0566C310.499 52.0566 311.064 51.9051 311.588 51.602C312.111 51.2988 312.532 50.858 312.848 50.2793C313.179 49.6868 313.344 48.998 313.344 48.2126ZM321.172 38.6233V53.9166H318.816V38.6233H321.172ZM334.702 47.944C334.702 48.3711 334.674 48.7568 334.619 49.1013H325.918C325.987 50.0106 326.325 50.7408 326.931 51.292C327.537 51.8431 328.281 52.1186 329.163 52.1186C330.43 52.1186 331.326 51.5882 331.85 50.5273H334.392C334.047 51.5744 333.42 52.4355 332.511 53.1106C331.615 53.772 330.499 54.1026 329.163 54.1026C328.074 54.1026 327.096 53.8615 326.228 53.3793C325.374 52.8833 324.699 52.1944 324.203 51.3126C323.721 50.4171 323.48 49.3837 323.48 48.2126C323.48 47.0415 323.714 46.0151 324.182 45.1333C324.664 44.2377 325.333 43.5488 326.187 43.0666C327.055 42.5844 328.047 42.3433 329.163 42.3433C330.238 42.3433 331.195 42.5775 332.036 43.046C332.876 43.5144 333.53 44.1757 333.999 45.03C334.467 45.8704 334.702 46.8417 334.702 47.944ZM332.242 47.2C332.228 46.332 331.918 45.6362 331.312 45.1126C330.706 44.5891 329.955 44.3273 329.06 44.3273C328.247 44.3273 327.551 44.5891 326.972 45.1126C326.394 45.6224 326.049 46.3182 325.939 47.2H332.242ZM344.745 44.2033C345.144 43.6797 345.688 43.2388 346.377 42.8806C347.066 42.5224 347.845 42.3433 348.713 42.3433C349.705 42.3433 350.607 42.5913 351.42 43.0873C352.247 43.5695 352.894 44.2515 353.363 45.1333C353.831 46.0151 354.065 47.0277 354.065 48.1713C354.065 49.3148 353.831 50.3413 353.363 51.2506C352.894 52.1462 352.247 52.8488 351.42 53.3586C350.607 53.8546 349.705 54.1026 348.713 54.1026C347.845 54.1026 347.073 53.9304 346.398 53.586C345.723 53.2277 345.172 52.7868 344.745 52.2633V59.3313H342.389V42.5293H344.745V44.2033ZM351.668 48.1713C351.668 47.386 351.503 46.7108 351.172 46.146C350.855 45.5673 350.428 45.1333 349.891 44.844C349.367 44.5408 348.802 44.3893 348.196 44.3893C347.603 44.3893 347.039 44.5408 346.501 44.844C345.978 45.1471 345.551 45.588 345.22 46.1666C344.903 46.7453 344.745 47.4273 344.745 48.2126C344.745 48.998 344.903 49.6868 345.22 50.2793C345.551 50.858 345.978 51.2988 346.501 51.602C347.039 51.9051 347.603 52.0566 348.196 52.0566C348.802 52.0566 349.367 51.9051 349.891 51.602C350.428 51.2851 350.855 50.8304 351.172 50.238C351.503 49.6455 351.668 48.9566 351.668 48.1713ZM358.751 38.6233V53.9166H356.395V38.6233H358.751ZM361.059 48.1713C361.059 47.0277 361.293 46.0151 361.762 45.1333C362.244 44.2515 362.891 43.5695 363.704 43.0873C364.531 42.5913 365.44 42.3433 366.432 42.3433C367.328 42.3433 368.106 42.5224 368.768 42.8806C369.443 43.2251 369.98 43.6591 370.38 44.1826V42.5293H372.756V53.9166H370.38V52.222C369.98 52.7593 369.436 53.2071 368.747 53.5653C368.058 53.9235 367.273 54.1026 366.391 54.1026C365.413 54.1026 364.517 53.8546 363.704 53.3586C362.891 52.8488 362.244 52.1462 361.762 51.2506C361.293 50.3413 361.059 49.3148 361.059 48.1713ZM370.38 48.2126C370.38 47.4273 370.214 46.7453 369.884 46.1666C369.567 45.588 369.147 45.1471 368.623 44.844C368.099 44.5408 367.535 44.3893 366.928 44.3893C366.322 44.3893 365.757 44.5408 365.234 44.844C364.71 45.1333 364.283 45.5673 363.952 46.146C363.635 46.7108 363.477 47.386 363.477 48.1713C363.477 48.9566 363.635 49.6455 363.952 50.238C364.283 50.8304 364.71 51.2851 365.234 51.602C365.771 51.9051 366.336 52.0566 366.928 52.0566C367.535 52.0566 368.099 51.9051 368.623 51.602C369.147 51.2988 369.567 50.858 369.884 50.2793C370.214 49.6868 370.38 48.998 370.38 48.2126ZM386.101 42.5293L379.116 59.2693H376.677L378.992 53.7306L374.507 42.5293H377.132L380.335 51.2093L383.663 42.5293H386.101Z" fill="#FEFEFF"/>
<defs>
<clipPath id="clip0_1_5445">
<rect width="36.1667" height="36.1667" fill="white" transform="translate(12.9167 19.6497)"/>
</clipPath>
<clipPath id="clip1_1_5445">
<rect width="31" height="31" fill="white" transform="translate(222.167 22.233)"/>
</clipPath>
</defs>
</svg>
