<svg width="168" height="59" viewBox="0 0 168 59" fill="none" xmlns="http://www.w3.org/2000/svg">
<rect y="0.5" width="168" height="58.4898" rx="4" fill="#333333"/>
<g clip-path="url(#clip0_5_357)">
<path d="M35.424 37.5656C35.0157 38.5167 34.5114 39.4236 33.919 40.2723C33.1269 41.401 32.4788 42.1821 31.9795 42.6161C31.2054 43.3278 30.3753 43.693 29.4869 43.7134C28.8493 43.7134 28.0805 43.532 27.185 43.1639C26.2867 42.7975 25.4613 42.6155 24.7065 42.6155C23.9149 42.6155 23.0661 42.7975 22.1579 43.1639C21.2485 43.532 20.5158 43.7239 19.9558 43.7425C19.1041 43.7793 18.2548 43.4042 17.4066 42.6161C16.8659 42.1436 16.1898 41.3351 15.379 40.1895C14.5092 38.9656 13.794 37.547 13.234 35.9288C12.6344 34.1817 12.3334 32.4895 12.3334 30.8515C12.3334 28.9749 12.7388 27.3567 13.5508 26.0005C14.1895 24.9108 15.0383 24.0521 16.1011 23.421C17.1438 22.797 18.3336 22.4612 19.5486 22.448C20.2253 22.448 21.1125 22.6574 22.2156 23.0686C23.3152 23.481 24.021 23.6905 24.3308 23.6905C24.5618 23.6905 25.3464 23.4455 26.6758 22.9578C27.9335 22.5051 28.9945 22.3179 29.8637 22.392C32.2198 22.5821 33.9896 23.5108 35.1662 25.1838C33.0598 26.4601 32.0174 28.248 32.0384 30.5417C32.057 32.3285 32.7051 33.8154 33.9791 34.9955C34.5566 35.5438 35.2012 35.9673 35.9181 36.2677C35.7678 36.7057 35.603 37.1386 35.424 37.5656ZM30.0212 16.3055C30.0212 17.7055 29.5096 19.0133 28.49 20.2231C27.2591 21.6622 25.771 22.4935 24.157 22.3622C24.1353 22.1861 24.1244 22.0088 24.1243 21.8314C24.1243 20.4874 24.7094 19.0489 25.7489 17.8723C26.268 17.2767 26.9272 16.7815 27.7275 16.3865C28.5267 15.9975 29.2815 15.7822 29.992 15.7449C30.0125 15.9321 30.0212 16.1194 30.0212 16.3049V16.3055Z" fill="#FEFEFF"/>
</g>
<path d="M47.234 13.833C48.07 13.833 48.7923 13.9907 49.401 14.306C50.017 14.614 50.4863 15.0577 50.809 15.637C51.139 16.2163 51.304 16.8983 51.304 17.683C51.304 18.4677 51.139 19.1497 50.809 19.729C50.4863 20.301 50.017 20.741 49.401 21.049C48.7923 21.3497 48.07 21.5 47.234 21.5H44.847V13.833H47.234ZM47.234 20.675C48.224 20.675 48.9793 20.4147 49.5 19.894C50.0207 19.366 50.281 18.629 50.281 17.683C50.281 16.7297 50.017 15.9853 49.489 15.45C48.9683 14.9147 48.2167 14.647 47.234 14.647H45.848V20.675H47.234ZM55.2533 21.599C54.6887 21.599 54.1753 21.4707 53.7133 21.214C53.2587 20.9573 52.8993 20.5943 52.6353 20.125C52.3787 19.6483 52.2503 19.0983 52.2503 18.475C52.2503 17.859 52.3823 17.3163 52.6463 16.847C52.9177 16.3703 53.2843 16.0073 53.7463 15.758C54.2083 15.5013 54.7253 15.373 55.2973 15.373C55.8693 15.373 56.3863 15.5013 56.8483 15.758C57.3103 16.0073 57.6733 16.3667 57.9373 16.836C58.2087 17.3053 58.3443 17.8517 58.3443 18.475C58.3443 19.0983 58.205 19.6483 57.9263 20.125C57.655 20.5943 57.2847 20.9573 56.8153 21.214C56.346 21.4707 55.8253 21.599 55.2533 21.599ZM55.2533 20.719C55.6127 20.719 55.95 20.6347 56.2653 20.466C56.5807 20.2973 56.8337 20.0443 57.0243 19.707C57.2223 19.3697 57.3213 18.959 57.3213 18.475C57.3213 17.991 57.226 17.5803 57.0353 17.243C56.8447 16.9057 56.5953 16.6563 56.2873 16.495C55.9793 16.3263 55.6457 16.242 55.2863 16.242C54.9197 16.242 54.5823 16.3263 54.2743 16.495C53.9737 16.6563 53.7317 16.9057 53.5483 17.243C53.365 17.5803 53.2733 17.991 53.2733 18.475C53.2733 18.9663 53.3613 19.3807 53.5373 19.718C53.7207 20.0553 53.9627 20.3083 54.2633 20.477C54.564 20.6383 54.894 20.719 55.2533 20.719ZM67.6905 15.472L65.8095 21.5H64.7755L63.3235 16.715L61.8715 21.5H60.8375L58.9455 15.472H59.9685L61.3545 20.532L62.8505 15.472H63.8735L65.3365 20.543L66.7005 15.472H67.6905ZM71.6209 15.362C72.3542 15.362 72.9482 15.5857 73.4029 16.033C73.8576 16.473 74.0849 17.111 74.0849 17.947V21.5H73.0949V18.09C73.0949 17.4887 72.9446 17.0303 72.6439 16.715C72.3432 16.3923 71.9326 16.231 71.4119 16.231C70.8839 16.231 70.4622 16.396 70.1469 16.726C69.8389 17.056 69.6849 17.5363 69.6849 18.167V21.5H68.6839V15.472H69.6849V16.33C69.8829 16.022 70.1506 15.7837 70.4879 15.615C70.8326 15.4463 71.2102 15.362 71.6209 15.362ZM76.721 13.36V21.5H75.72V13.36H76.721ZM81.0561 21.599C80.4914 21.599 79.9781 21.4707 79.5161 21.214C79.0614 20.9573 78.7021 20.5943 78.4381 20.125C78.1814 19.6483 78.0531 19.0983 78.0531 18.475C78.0531 17.859 78.1851 17.3163 78.4491 16.847C78.7204 16.3703 79.0871 16.0073 79.5491 15.758C80.0111 15.5013 80.5281 15.373 81.1001 15.373C81.6721 15.373 82.1891 15.5013 82.6511 15.758C83.1131 16.0073 83.4761 16.3667 83.7401 16.836C84.0114 17.3053 84.1471 17.8517 84.1471 18.475C84.1471 19.0983 84.0077 19.6483 83.7291 20.125C83.4577 20.5943 83.0874 20.9573 82.6181 21.214C82.1487 21.4707 81.6281 21.599 81.0561 21.599ZM81.0561 20.719C81.4154 20.719 81.7527 20.6347 82.0681 20.466C82.3834 20.2973 82.6364 20.0443 82.8271 19.707C83.0251 19.3697 83.1241 18.959 83.1241 18.475C83.1241 17.991 83.0287 17.5803 82.8381 17.243C82.6474 16.9057 82.3981 16.6563 82.0901 16.495C81.7821 16.3263 81.4484 16.242 81.0891 16.242C80.7224 16.242 80.3851 16.3263 80.0771 16.495C79.7764 16.6563 79.5344 16.9057 79.3511 17.243C79.1677 17.5803 79.0761 17.991 79.0761 18.475C79.0761 18.9663 79.1641 19.3807 79.3401 19.718C79.5234 20.0553 79.7654 20.3083 80.0661 20.477C80.3667 20.6383 80.6967 20.719 81.0561 20.719ZM85.0892 18.464C85.0892 17.848 85.2139 17.309 85.4632 16.847C85.7125 16.3777 86.0535 16.0147 86.4862 15.758C86.9262 15.5013 87.4139 15.373 87.9492 15.373C88.4772 15.373 88.9355 15.4867 89.3242 15.714C89.7129 15.9413 90.0025 16.2273 90.1932 16.572V15.472H91.2052V21.5H90.1932V20.378C89.9952 20.73 89.6982 21.0233 89.3022 21.258C88.9135 21.4853 88.4589 21.599 87.9382 21.599C87.4029 21.599 86.9189 21.467 86.4862 21.203C86.0535 20.939 85.7125 20.5687 85.4632 20.092C85.2139 19.6153 85.0892 19.0727 85.0892 18.464ZM90.1932 18.475C90.1932 18.0203 90.1015 17.6243 89.9182 17.287C89.7349 16.9497 89.4855 16.693 89.1702 16.517C88.8622 16.3337 88.5212 16.242 88.1472 16.242C87.7732 16.242 87.4322 16.33 87.1242 16.506C86.8162 16.682 86.5705 16.9387 86.3872 17.276C86.2039 17.6133 86.1122 18.0093 86.1122 18.464C86.1122 18.926 86.2039 19.3293 86.3872 19.674C86.5705 20.0113 86.8162 20.2717 87.1242 20.455C87.4322 20.631 87.7732 20.719 88.1472 20.719C88.5212 20.719 88.8622 20.631 89.1702 20.455C89.4855 20.2717 89.7349 20.0113 89.9182 19.674C90.1015 19.3293 90.1932 18.9297 90.1932 18.475ZM92.5228 18.464C92.5228 17.848 92.6475 17.309 92.8968 16.847C93.1461 16.3777 93.4871 16.0147 93.9198 15.758C94.3598 15.5013 94.8511 15.373 95.3938 15.373C95.8631 15.373 96.2995 15.483 96.7028 15.703C97.1061 15.9157 97.4141 16.198 97.6268 16.55V13.36H98.6388V21.5H97.6268V20.367C97.4288 20.7263 97.1355 21.0233 96.7468 21.258C96.3581 21.4853 95.9035 21.599 95.3828 21.599C94.8475 21.599 94.3598 21.467 93.9198 21.203C93.4871 20.939 93.1461 20.5687 92.8968 20.092C92.6475 19.6153 92.5228 19.0727 92.5228 18.464ZM97.6268 18.475C97.6268 18.0203 97.5351 17.6243 97.3518 17.287C97.1685 16.9497 96.9191 16.693 96.6038 16.517C96.2958 16.3337 95.9548 16.242 95.5808 16.242C95.2068 16.242 94.8658 16.33 94.5578 16.506C94.2498 16.682 94.0041 16.9387 93.8208 17.276C93.6375 17.6133 93.5458 18.0093 93.5458 18.464C93.5458 18.926 93.6375 19.3293 93.8208 19.674C94.0041 20.0113 94.2498 20.2717 94.5578 20.455C94.8658 20.631 95.2068 20.719 95.5808 20.719C95.9548 20.719 96.2958 20.631 96.6038 20.455C96.9191 20.2717 97.1685 20.0113 97.3518 19.674C97.5351 19.3293 97.6268 18.9297 97.6268 18.475ZM105.892 21.599C105.327 21.599 104.814 21.4707 104.352 21.214C103.897 20.9573 103.538 20.5943 103.274 20.125C103.017 19.6483 102.889 19.0983 102.889 18.475C102.889 17.859 103.021 17.3163 103.285 16.847C103.556 16.3703 103.923 16.0073 104.385 15.758C104.847 15.5013 105.364 15.373 105.936 15.373C106.508 15.373 107.025 15.5013 107.487 15.758C107.949 16.0073 108.312 16.3667 108.576 16.836C108.847 17.3053 108.983 17.8517 108.983 18.475C108.983 19.0983 108.844 19.6483 108.565 20.125C108.294 20.5943 107.923 20.9573 107.454 21.214C106.985 21.4707 106.464 21.599 105.892 21.599ZM105.892 20.719C106.251 20.719 106.589 20.6347 106.904 20.466C107.219 20.2973 107.472 20.0443 107.663 19.707C107.861 19.3697 107.96 18.959 107.96 18.475C107.96 17.991 107.865 17.5803 107.674 17.243C107.483 16.9057 107.234 16.6563 106.926 16.495C106.618 16.3263 106.284 16.242 105.925 16.242C105.558 16.242 105.221 16.3263 104.913 16.495C104.612 16.6563 104.37 16.9057 104.187 17.243C104.004 17.5803 103.912 17.991 103.912 18.475C103.912 18.9663 104 19.3807 104.176 19.718C104.359 20.0553 104.601 20.3083 104.902 20.477C105.203 20.6383 105.533 20.719 105.892 20.719ZM113.236 15.362C113.969 15.362 114.563 15.5857 115.018 16.033C115.473 16.473 115.7 17.111 115.7 17.947V21.5H114.71V18.09C114.71 17.4887 114.56 17.0303 114.259 16.715C113.958 16.3923 113.548 16.231 113.027 16.231C112.499 16.231 112.077 16.396 111.762 16.726C111.454 17.056 111.3 17.5363 111.3 18.167V21.5H110.299V15.472H111.3V16.33C111.498 16.022 111.766 15.7837 112.103 15.615C112.448 15.4463 112.825 15.362 113.236 15.362ZM121.489 16.297V19.85C121.489 20.1433 121.551 20.3523 121.676 20.477C121.801 20.5943 122.017 20.653 122.325 20.653H123.062V21.5H122.16C121.603 21.5 121.185 21.3717 120.906 21.115C120.627 20.8583 120.488 20.4367 120.488 19.85V16.297H119.707V15.472H120.488V13.954H121.489V15.472H123.062V16.297H121.489ZM127.267 15.362C127.721 15.362 128.132 15.461 128.499 15.659C128.865 15.8497 129.151 16.1393 129.357 16.528C129.569 16.9167 129.676 17.3897 129.676 17.947V21.5H128.686V18.09C128.686 17.4887 128.535 17.0303 128.235 16.715C127.934 16.3923 127.523 16.231 127.003 16.231C126.475 16.231 126.053 16.396 125.738 16.726C125.43 17.056 125.276 17.5363 125.276 18.167V21.5H124.275V13.36H125.276V16.33C125.474 16.022 125.745 15.7837 126.09 15.615C126.442 15.4463 126.834 15.362 127.267 15.362ZM136.811 18.255C136.811 18.4457 136.8 18.6473 136.778 18.86H131.96C131.997 19.454 132.198 19.9197 132.565 20.257C132.939 20.587 133.39 20.752 133.918 20.752C134.351 20.752 134.71 20.653 134.996 20.455C135.289 20.2497 135.495 19.9783 135.612 19.641H136.69C136.529 20.2203 136.206 20.6933 135.722 21.06C135.238 21.4193 134.637 21.599 133.918 21.599C133.346 21.599 132.833 21.4707 132.378 21.214C131.931 20.9573 131.579 20.5943 131.322 20.125C131.065 19.6483 130.937 19.0983 130.937 18.475C130.937 17.8517 131.062 17.3053 131.311 16.836C131.56 16.3667 131.909 16.0073 132.356 15.758C132.811 15.5013 133.331 15.373 133.918 15.373C134.49 15.373 134.996 15.4977 135.436 15.747C135.876 15.9963 136.213 16.341 136.448 16.781C136.69 17.2137 136.811 17.705 136.811 18.255ZM135.777 18.046C135.777 17.6647 135.693 17.3383 135.524 17.067C135.355 16.7883 135.124 16.5793 134.831 16.44C134.545 16.2933 134.226 16.22 133.874 16.22C133.368 16.22 132.935 16.3813 132.576 16.704C132.224 17.0267 132.022 17.474 131.971 18.046H135.777Z" fill="#B3B3B3"/>
<path d="M51.904 40.228H47.248L46.448 42.5H44.544L48.528 31.364H50.64L54.624 42.5H52.704L51.904 40.228ZM51.392 38.74L49.584 33.572L47.76 38.74H51.392ZM58.1803 34.98C58.4896 34.5747 58.9109 34.2333 59.4443 33.956C59.9776 33.6787 60.5803 33.54 61.2523 33.54C62.0203 33.54 62.7189 33.732 63.3483 34.116C63.9883 34.4893 64.4896 35.0173 64.8523 35.7C65.2149 36.3827 65.3963 37.1667 65.3963 38.052C65.3963 38.9373 65.2149 39.732 64.8523 40.436C64.4896 41.1293 63.9883 41.6733 63.3483 42.068C62.7189 42.452 62.0203 42.644 61.2523 42.644C60.5803 42.644 59.9829 42.5107 59.4603 42.244C58.9376 41.9667 58.5109 41.6253 58.1803 41.22V46.692H56.3563V33.684H58.1803V34.98ZM63.5403 38.052C63.5403 37.444 63.4123 36.9213 63.1562 36.484C62.9109 36.036 62.5803 35.7 62.1643 35.476C61.7589 35.2413 61.3216 35.124 60.8523 35.124C60.3936 35.124 59.9563 35.2413 59.5403 35.476C59.1349 35.7107 58.8043 36.052 58.5483 36.5C58.3029 36.948 58.1803 37.476 58.1803 38.084C58.1803 38.692 58.3029 39.2253 58.5483 39.684C58.8043 40.132 59.1349 40.4733 59.5403 40.708C59.9563 40.9427 60.3936 41.06 60.8523 41.06C61.3216 41.06 61.7589 40.9427 62.1643 40.708C62.5803 40.4627 62.9109 40.1107 63.1562 39.652C63.4123 39.1933 63.5403 38.66 63.5403 38.052ZM69.024 34.98C69.3333 34.5747 69.7547 34.2333 70.288 33.956C70.8213 33.6787 71.424 33.54 72.096 33.54C72.864 33.54 73.5627 33.732 74.192 34.116C74.832 34.4893 75.3333 35.0173 75.696 35.7C76.0587 36.3827 76.24 37.1667 76.24 38.052C76.24 38.9373 76.0587 39.732 75.696 40.436C75.3333 41.1293 74.832 41.6733 74.192 42.068C73.5627 42.452 72.864 42.644 72.096 42.644C71.424 42.644 70.8267 42.5107 70.304 42.244C69.7813 41.9667 69.3547 41.6253 69.024 41.22V46.692H67.2V33.684H69.024V34.98ZM74.384 38.052C74.384 37.444 74.256 36.9213 74 36.484C73.7547 36.036 73.424 35.7 73.008 35.476C72.6027 35.2413 72.1653 35.124 71.696 35.124C71.2373 35.124 70.8 35.2413 70.384 35.476C69.9787 35.7107 69.648 36.052 69.392 36.5C69.1467 36.948 69.024 37.476 69.024 38.084C69.024 38.692 69.1467 39.2253 69.392 39.684C69.648 40.132 69.9787 40.4733 70.384 40.708C70.8 40.9427 71.2373 41.06 71.696 41.06C72.1653 41.06 72.6027 40.9427 73.008 40.708C73.424 40.4627 73.7547 40.1107 74 39.652C74.256 39.1933 74.384 38.66 74.384 38.052ZM85.864 42.612C85.1173 42.612 84.4453 42.484 83.848 42.228C83.2507 41.9613 82.7813 41.588 82.44 41.108C82.0987 40.628 81.928 40.068 81.928 39.428H83.88C83.9227 39.908 84.1093 40.3027 84.44 40.612C84.7813 40.9213 85.256 41.076 85.864 41.076C86.4933 41.076 86.984 40.9267 87.336 40.628C87.688 40.3187 87.864 39.924 87.864 39.444C87.864 39.0707 87.752 38.7667 87.528 38.532C87.3147 38.2973 87.0427 38.116 86.712 37.988C86.392 37.86 85.944 37.7213 85.368 37.572C84.6427 37.38 84.0507 37.188 83.592 36.996C83.144 36.7933 82.76 36.484 82.44 36.068C82.12 35.652 81.96 35.0973 81.96 34.404C81.96 33.764 82.12 33.204 82.44 32.724C82.76 32.244 83.208 31.876 83.784 31.62C84.36 31.364 85.0267 31.236 85.784 31.236C86.8613 31.236 87.7413 31.508 88.424 32.052C89.1173 32.5853 89.5013 33.3213 89.576 34.26H87.56C87.528 33.8547 87.336 33.508 86.984 33.22C86.632 32.932 86.168 32.788 85.592 32.788C85.0693 32.788 84.6427 32.9213 84.312 33.188C83.9813 33.4547 83.816 33.8387 83.816 34.34C83.816 34.6813 83.9173 34.964 84.12 35.188C84.3333 35.4013 84.6 35.572 84.92 35.7C85.24 35.828 85.6773 35.9667 86.232 36.116C86.968 36.3187 87.5653 36.5213 88.024 36.724C88.4933 36.9267 88.888 37.2413 89.208 37.668C89.5387 38.084 89.704 38.644 89.704 39.348C89.704 39.9133 89.5493 40.4467 89.24 40.948C88.9413 41.4493 88.4987 41.8547 87.912 42.164C87.336 42.4627 86.6533 42.612 85.864 42.612ZM93.9843 35.172V40.052C93.9843 40.3827 94.0589 40.6227 94.2083 40.772C94.3683 40.9107 94.6349 40.98 95.0083 40.98H96.1283V42.5H94.6883C93.8669 42.5 93.2376 42.308 92.8003 41.924C92.3629 41.54 92.1443 40.916 92.1443 40.052V35.172H91.1043V33.684H92.1443V31.492H93.9843V33.684H96.1283V35.172H93.9843ZM101.633 42.644C100.801 42.644 100.049 42.4573 99.3774 42.084C98.7054 41.7 98.1774 41.1667 97.7934 40.484C97.4094 39.7907 97.2174 38.9907 97.2174 38.084C97.2174 37.188 97.4147 36.3933 97.8094 35.7C98.204 35.0067 98.7427 34.4733 99.4254 34.1C100.108 33.7267 100.871 33.54 101.713 33.54C102.556 33.54 103.319 33.7267 104.001 34.1C104.684 34.4733 105.223 35.0067 105.617 35.7C106.012 36.3933 106.209 37.188 106.209 38.084C106.209 38.98 106.007 39.7747 105.601 40.468C105.196 41.1613 104.641 41.7 103.937 42.084C103.244 42.4573 102.476 42.644 101.633 42.644ZM101.633 41.06C102.103 41.06 102.54 40.948 102.945 40.724C103.361 40.5 103.697 40.164 103.953 39.716C104.209 39.268 104.337 38.724 104.337 38.084C104.337 37.444 104.215 36.9053 103.969 36.468C103.724 36.02 103.399 35.684 102.993 35.46C102.588 35.236 102.151 35.124 101.681 35.124C101.212 35.124 100.775 35.236 100.369 35.46C99.9747 35.684 99.66 36.02 99.4254 36.468C99.1907 36.9053 99.0734 37.444 99.0734 38.084C99.0734 39.0333 99.3134 39.7693 99.7934 40.292C100.284 40.804 100.897 41.06 101.633 41.06ZM109.837 34.964C110.103 34.516 110.455 34.1693 110.893 33.924C111.341 33.668 111.869 33.54 112.477 33.54V35.428H112.013C111.298 35.428 110.754 35.6093 110.381 35.972C110.018 36.3347 109.837 36.964 109.837 37.86V42.5H108.013V33.684H109.837V34.964ZM122.233 37.876C122.233 38.2067 122.212 38.5053 122.169 38.772H115.433C115.486 39.476 115.748 40.0413 116.217 40.468C116.686 40.8947 117.262 41.108 117.945 41.108C118.926 41.108 119.62 40.6973 120.025 39.876H121.993C121.726 40.6867 121.241 41.3533 120.537 41.876C119.844 42.388 118.98 42.644 117.945 42.644C117.102 42.644 116.345 42.4573 115.673 42.084C115.012 41.7 114.489 41.1667 114.105 40.484C113.732 39.7907 113.545 38.9907 113.545 38.084C113.545 37.1773 113.726 36.3827 114.089 35.7C114.462 35.0067 114.98 34.4733 115.641 34.1C116.313 33.7267 117.081 33.54 117.945 33.54C118.777 33.54 119.518 33.7213 120.169 34.084C120.82 34.4467 121.326 34.9587 121.689 35.62C122.052 36.2707 122.233 37.0227 122.233 37.876ZM120.329 37.3C120.318 36.628 120.078 36.0893 119.609 35.684C119.14 35.2787 118.558 35.076 117.865 35.076C117.236 35.076 116.697 35.2787 116.249 35.684C115.801 36.0787 115.534 36.6173 115.449 37.3H120.329Z" fill="#FEFEFF"/>
<defs>
<clipPath id="clip0_5_357">
<rect width="28" height="28" fill="white" transform="translate(10 15.7449)"/>
</clipPath>
</defs>
</svg>
