<svg width="990" height="189" viewBox="0 0 990 189" fill="none" xmlns="http://www.w3.org/2000/svg">
<path fill-rule="evenodd" clip-rule="evenodd" d="M64.2542 1.88592C66.3808 -0.628641 70.2574 -0.628641 72.384 1.88592L135.369 76.3599C138.296 79.8201 135.836 85.1215 131.304 85.1215H119.766V146.13L105.254 131.617L107.405 129.467C108.25 128.622 107.72 127.175 106.529 127.076L80.9065 124.934C80.0414 124.862 79.3188 125.584 79.3911 126.45L81.5327 152.072C81.6322 153.263 83.0788 153.793 83.9236 152.948L86.1511 150.72L99.6768 164.246H22.6075C19.6672 164.246 17.2837 161.863 17.2837 158.922V85.1215H5.33398C0.802137 85.1215 -1.65738 79.8201 1.26907 76.3599L64.2542 1.88592ZM53.7583 40.7361H67.0678V54.0455H53.7583V40.7361ZM67.0678 56.706H53.7583V70.0155H67.0678V56.706ZM69.7308 40.7345H83.0403V54.044H69.7308V40.7345ZM83.0403 56.706H69.7308V70.0155H83.0403V56.706Z" fill="#4196E3"/>
<path d="M171.893 157V45.1569H192.984V91.3321H234.525V45.1569H255.616V157H234.525V110.505H192.984V157H171.893ZM315.092 159.237C307.21 159.237 300.127 157.639 293.842 154.444C287.558 151.248 282.604 146.615 278.983 140.543C275.361 134.472 273.551 127.175 273.551 118.654V116.097C273.551 107.576 275.361 100.28 278.983 94.2081C282.604 88.1366 287.558 83.5031 293.842 80.3076C300.127 77.1121 307.21 75.5143 315.092 75.5143C322.974 75.5143 330.058 77.1121 336.342 80.3076C342.627 83.5031 347.58 88.1366 351.202 94.2081C354.823 100.28 356.634 107.576 356.634 116.097V118.654C356.634 127.175 354.823 134.472 351.202 140.543C347.58 146.615 342.627 151.248 336.342 154.444C330.058 157.639 322.974 159.237 315.092 159.237ZM315.092 141.342C321.27 141.342 326.383 139.371 330.431 135.43C334.478 131.383 336.502 125.631 336.502 118.174V116.577C336.502 109.121 334.478 103.422 330.431 99.4807C326.49 95.4331 321.377 93.4092 315.092 93.4092C308.914 93.4092 303.801 95.4331 299.754 99.4807C295.706 103.422 293.682 109.121 293.682 116.577V118.174C293.682 125.631 295.706 131.383 299.754 135.43C303.801 139.371 308.914 141.342 315.092 141.342ZM375.217 157V77.7512H395.029V86.3791H397.905C399.289 83.7162 401.58 81.4261 404.775 79.5087C407.971 77.4849 412.178 76.473 417.397 76.473C423.043 76.473 427.57 77.5914 430.978 79.8283C434.387 81.9586 436.997 84.7813 438.807 88.2964H441.683C443.494 84.8879 446.051 82.0652 449.353 79.8283C452.655 77.5914 457.341 76.473 463.413 76.473C468.313 76.473 472.733 77.5382 476.674 79.6685C480.722 81.6923 483.917 84.8346 486.261 89.0953C488.711 93.2495 489.936 98.5221 489.936 104.913V157H469.804V106.351C469.804 101.984 468.685 98.7351 466.449 96.6047C464.212 94.3679 461.069 93.2495 457.022 93.2495C452.442 93.2495 448.873 94.7407 446.317 97.7232C443.867 100.599 442.642 104.753 442.642 110.186V157H422.51V106.351C422.51 101.984 421.392 98.7351 419.155 96.6047C416.918 94.3679 413.776 93.2495 409.728 93.2495C405.148 93.2495 401.58 94.7407 399.023 97.7232C396.573 100.599 395.348 104.753 395.348 110.186V157H375.217ZM547.697 159.237C539.815 159.237 532.838 157.586 526.766 154.284C520.801 150.875 516.115 146.135 512.706 140.064C509.404 133.886 507.753 126.643 507.753 118.334V116.417C507.753 108.109 509.404 100.919 512.706 94.8472C516.008 88.6692 520.642 83.9292 526.607 80.6272C532.572 77.2186 539.495 75.5143 547.377 75.5143C555.153 75.5143 561.917 77.2719 567.669 80.7869C573.421 84.1955 577.895 88.9888 581.09 95.1668C584.286 101.238 585.883 108.322 585.883 116.417V123.287H528.204C528.417 128.72 530.441 133.14 534.276 136.549C538.11 139.957 542.797 141.662 548.336 141.662C553.982 141.662 558.136 140.437 560.799 137.987C563.462 135.537 565.485 132.821 566.87 129.838L583.327 138.466C581.836 141.235 579.652 144.271 576.776 147.573C574.007 150.769 570.279 153.538 565.592 155.882C560.905 158.118 554.94 159.237 547.697 159.237ZM528.364 108.268H565.432C565.006 103.688 563.142 100.013 559.84 97.2439C556.644 94.4744 552.437 93.0897 547.218 93.0897C541.785 93.0897 537.471 94.4744 534.276 97.2439C531.08 100.013 529.11 103.688 528.364 108.268Z" fill="black"/>
<path d="M641.988 159.237C633.361 159.237 625.745 157.692 619.141 154.603C612.536 151.514 607.37 147.094 603.642 141.342C599.914 135.59 598.05 128.666 598.05 120.571V116.097H618.821V120.571C618.821 127.282 620.898 132.341 625.052 135.75C629.206 139.052 634.852 140.703 641.988 140.703C649.232 140.703 654.611 139.265 658.126 136.389C661.747 133.513 663.558 129.838 663.558 125.364C663.558 122.275 662.653 119.772 660.842 117.855C659.138 115.938 656.581 114.393 653.173 113.221C649.871 111.943 645.823 110.772 641.03 109.706L637.355 108.907C629.686 107.203 623.082 105.073 617.543 102.516C612.11 99.8535 607.903 96.3917 604.921 92.131C602.045 87.8703 600.607 82.3314 600.607 75.5143C600.607 68.6972 602.204 62.8921 605.4 58.0988C608.702 53.199 613.282 49.4709 619.141 46.9145C625.106 44.2515 632.082 42.9201 640.071 42.9201C648.06 42.9201 655.143 44.3048 661.321 47.0743C667.606 49.7372 672.506 53.7848 676.021 59.2172C679.642 64.5431 681.453 71.2537 681.453 79.349V84.1422H660.682V79.349C660.682 75.0883 659.83 71.6797 658.126 69.1233C656.528 66.4604 654.185 64.5431 651.096 63.3714C648.007 62.0932 644.332 61.4541 640.071 61.4541C633.68 61.4541 628.94 62.679 625.851 65.1289C622.869 67.4723 621.377 70.7211 621.377 74.8752C621.377 77.6447 622.07 79.9881 623.454 81.9054C624.946 83.8227 627.129 85.4204 630.005 86.6986C632.881 87.9769 636.556 89.0953 641.03 90.0539L644.705 90.8528C652.693 92.5571 659.617 94.7407 665.476 97.4036C671.44 100.067 676.074 103.582 679.376 107.949C682.678 112.316 684.329 117.908 684.329 124.725C684.329 131.542 682.572 137.561 679.056 142.78C675.648 147.893 670.748 151.94 664.357 154.923C658.073 157.799 650.616 159.237 641.988 159.237ZM709.325 188.955V171.38H752.465C755.447 171.38 756.938 169.782 756.938 166.587V146.615H754.062C753.21 148.425 751.879 150.236 750.068 152.047C748.257 153.858 745.807 155.349 742.718 156.521C739.629 157.692 735.688 158.278 730.895 158.278C724.717 158.278 719.285 156.893 714.598 154.124C710.018 151.248 706.449 147.307 703.893 142.301C701.336 137.294 700.058 131.542 700.058 125.045V77.7512H720.19V123.447C720.19 129.412 721.628 133.886 724.504 136.868C727.486 139.851 731.694 141.342 737.126 141.342C743.304 141.342 748.098 139.318 751.506 135.27C754.915 131.116 756.619 125.364 756.619 118.015V77.7512H776.751V171.06C776.751 176.493 775.153 180.807 771.957 184.002C768.762 187.304 764.501 188.955 759.175 188.955H709.325ZM799.153 157V77.7512H818.965V88.1366H821.841C823.119 85.3672 825.516 82.7575 829.031 80.3076C832.546 77.7512 837.872 76.473 845.009 76.473C851.187 76.473 856.566 77.911 861.146 80.7869C865.833 83.5564 869.454 87.4443 872.011 92.4506C874.567 97.3504 875.845 103.102 875.845 109.706V157H855.714V111.304C855.714 105.339 854.222 100.865 851.24 97.883C848.364 94.9005 844.21 93.4092 838.777 93.4092C832.599 93.4092 827.806 95.4863 824.398 99.6405C820.989 103.688 819.285 109.387 819.285 116.737V157H799.153ZM897.608 157V45.1569H917.74V106.99H920.616L946.819 77.7512H973.023L936.434 116.097L974.301 157H948.417L920.616 125.524H917.74V157H897.608Z" fill="#4196E3"/>
</svg>
