<svg width="54" height="54" viewBox="0 0 54 54" fill="none" xmlns="http://www.w3.org/2000/svg">
<circle cx="26.8709" cy="27.0829" r="26.4355" fill="#4196E3" fill-opacity="0.12"/>
<path d="M22.3271 16.5087V19.4621M31.5617 16.5087V19.4621M23.4814 30.9804H26.9444M23.4814 27.4363H30.4073M17.3492 30.8995C16.8271 28.6217 16.8271 26.251 17.3492 23.9731C18.0721 20.819 20.4785 18.3562 23.5605 17.6164C25.7862 17.0821 28.1025 17.0821 30.3283 17.6164C33.4102 18.3562 35.8166 20.819 36.5395 23.9732C37.0616 26.251 37.0616 28.6217 36.5395 30.8995C35.8166 34.0537 33.4102 36.5164 30.3283 37.2563C28.1025 37.7906 25.7862 37.7906 23.5605 37.2563C20.4785 36.5164 18.0721 34.0537 17.3492 30.8995Z" stroke="#4196E3" stroke-width="1.98266" stroke-linecap="round"/>
</svg>
