<svg width="54" height="54" viewBox="0 0 54 54" fill="none" xmlns="http://www.w3.org/2000/svg">
<circle cx="26.8709" cy="27.079" r="26.4355" fill="#4196E3" fill-opacity="0.12"/>
<path d="M17.7042 23.6415H36.0376M23.4334 24.2144L23.4334 36.2457M17.3463 30.438C16.8281 28.2287 16.8281 25.9293 17.3463 23.72C18.0639 20.6607 20.4526 18.272 23.5119 17.5544C25.7213 17.0361 28.0206 17.0361 30.23 17.5544C33.2892 18.272 35.6779 20.6607 36.3955 23.72C36.9138 25.9293 36.9138 28.2287 36.3955 30.438C35.6779 33.4973 33.2892 35.886 30.23 36.6036C28.0206 37.1219 25.7213 37.1219 23.5119 36.6036C20.4526 35.886 18.0639 33.4973 17.3463 30.438Z" stroke="#4196E3" stroke-width="1.98266"/>
</svg>
