<svg width="24" height="25" viewBox="0 0 24 25" fill="none" xmlns="http://www.w3.org/2000/svg">
<g clip-path="url(#clip0_1_5651)">
<path d="M16.8503 0.609863H7.14973C3.20735 0.609863 0 3.81722 0 7.75959V17.4601C0 21.4025 3.20735 24.6099 7.14973 24.6099H16.8503C20.7926 24.6099 24 21.4025 24 17.4601V7.75959C24 3.81722 20.7926 0.609863 16.8503 0.609863ZM21.5856 17.4601C21.5856 20.0754 19.4655 22.1955 16.8503 22.1955H7.14973C4.5345 22.1955 2.4144 20.0754 2.4144 17.4601V7.75959C2.4144 5.14432 4.5345 3.02426 7.14973 3.02426H16.8503C19.4655 3.02426 21.5856 5.14432 21.5856 7.75959V17.4601Z" fill="#FEFEFF"/>
<path d="M12 6.40259C8.57729 6.40259 5.79272 9.18716 5.79272 12.6098C5.79272 16.0324 8.57729 18.8171 12 18.8171C15.4227 18.8171 18.2072 16.0325 18.2072 12.6098C18.2072 9.18711 15.4227 6.40259 12 6.40259ZM12 16.4027C9.90523 16.4027 8.20712 14.7046 8.20712 12.6098C8.20712 10.5151 9.90527 8.81699 12 8.81699C14.0947 8.81699 15.7928 10.5151 15.7928 12.6098C15.7928 14.7046 14.0947 16.4027 12 16.4027Z" fill="#FEFEFF"/>
<path d="M18.219 7.9366C19.0405 7.9366 19.7064 7.27069 19.7064 6.44926C19.7064 5.62782 19.0405 4.96191 18.219 4.96191C17.3976 4.96191 16.7317 5.62782 16.7317 6.44926C16.7317 7.27069 17.3976 7.9366 18.219 7.9366Z" fill="#FEFEFF"/>
</g>
<defs>
<clipPath id="clip0_1_5651">
<rect width="24" height="24" fill="white" transform="translate(0 0.609863)"/>
</clipPath>
</defs>
</svg>
