<svg width="81" height="80" viewBox="0 0 81 80" fill="none" xmlns="http://www.w3.org/2000/svg">
<circle cx="40.5" cy="40" r="40" fill="#4196E3" fill-opacity="0.12"/>
<path d="M40.8472 27.3221C40.5563 25.9432 39.3013 24.984 37.8944 25.0651C37.5373 25.0857 37.1853 25.16 36.8503 25.2854C35.5305 25.7795 34.77 27.164 35.0609 28.5429L35.4723 30.4928C34.7403 30.8795 34.0637 31.3459 33.4513 31.8783L31.7809 30.7899C30.6002 30.0206 29.0345 30.2297 28.097 31.2819C27.859 31.549 27.6627 31.8504 27.5145 32.1759C26.9307 33.4585 27.3719 34.9753 28.5526 35.7446L30.223 36.833C29.9834 37.6082 29.8301 38.4156 29.7721 39.2414L27.8222 39.6528C26.4433 39.9437 25.484 41.1987 25.5651 42.6056C25.5857 42.9627 25.66 43.3147 25.7854 43.6497C26.2795 44.9695 27.664 45.73 29.0429 45.4391L30.9928 45.0277C31.3795 45.7597 31.8459 46.4363 32.3783 47.0487L31.2899 48.7191C30.5206 49.8998 30.7297 51.4655 31.7819 52.403C32.049 52.641 32.3504 52.8373 32.6759 52.9855C33.9585 53.5693 35.4753 53.1281 36.2446 51.9474L37.333 50.277C38.1082 50.5166 38.9156 50.6699 39.7414 50.7279L40.1528 52.6778C40.4437 54.0567 41.6987 55.016 43.1056 54.9349C43.4627 54.9143 43.8147 54.84 44.1497 54.7146C45.4695 54.2205 46.23 52.836 45.9391 51.4571L45.5277 49.5072C46.2597 49.1205 46.9363 48.6541 47.5487 48.1217L49.2191 49.2101C50.3998 49.9794 51.9655 49.7703 52.903 48.7181C53.141 48.451 53.3373 48.1496 53.4855 47.8241C54.0693 46.5415 53.6281 45.0247 52.4474 44.2554L50.777 43.167C51.0166 42.3918 51.1699 41.5844 51.2279 40.7586L53.1779 40.3472C54.5568 40.0563 55.516 38.8013 55.4349 37.3944C55.4143 37.0373 55.34 36.6853 55.2146 36.3503C54.7205 35.0305 53.336 34.27 51.9571 34.5609L50.0072 34.9723C49.6205 34.2403 49.1541 33.5637 48.6217 32.9513L49.7101 31.2809C50.4794 30.1002 50.2703 28.5344 49.2181 27.597C48.951 27.359 48.6497 27.1627 48.3241 27.0145C47.0415 26.4307 45.5247 26.8719 44.7554 28.0526L43.667 29.723C42.8918 29.4834 42.0844 29.3301 41.2586 29.2721L40.8472 27.3221Z" stroke="#4196E3" stroke-width="3" stroke-linecap="round" stroke-linejoin="round"/>
<path d="M36.372 40.8699C35.8909 38.5896 37.3495 36.351 39.6298 35.8699C41.9101 35.3888 44.1487 36.8474 44.6298 39.1277C45.1109 41.4081 43.6523 43.6466 41.372 44.1277C39.0916 44.6088 36.8531 43.1502 36.372 40.8699Z" stroke="#4196E3" stroke-width="3"/>
</svg>
