<svg width="28" height="28" viewBox="0 0 28 28" fill="none" xmlns="http://www.w3.org/2000/svg">
<path d="M17.3634 4.08569C19.0174 4.53054 20.5255 5.40216 21.7366 6.61327C22.9477 7.82438 23.8193 9.33244 24.2641 10.9864" stroke="#565656" stroke-width="1.4" stroke-linecap="round" stroke-linejoin="round"/>
<path d="M16.3538 7.85669C17.3459 8.12361 18.2506 8.64651 18.9771 9.37303C19.7036 10.0995 20.2265 11.0042 20.4934 11.9964" stroke="#565656" stroke-width="1.4" stroke-linecap="round" stroke-linejoin="round"/>
<path d="M9.20028 14.4295C10.212 16.4986 11.8889 18.1683 13.9624 19.1711C14.1142 19.2431 14.2822 19.2741 14.4497 19.2613C14.6172 19.2485 14.7785 19.1922 14.9176 19.098L17.9713 17.0628C18.1062 16.9727 18.2614 16.9177 18.4229 16.9027C18.5844 16.8877 18.7471 16.9132 18.8962 16.9769L24.6086 19.4258C24.8027 19.5082 24.9647 19.6514 25.0702 19.8339C25.1758 20.0164 25.2193 20.2282 25.194 20.4375C25.0132 21.8502 24.3237 23.1486 23.2547 24.0896C22.1856 25.0306 20.8102 25.5498 19.386 25.5499C14.9871 25.5499 10.7684 23.8025 7.65797 20.692C4.54749 17.5815 2.80005 13.3628 2.80005 8.96394C2.80018 7.53982 3.31936 6.16458 4.2604 5.09567C5.20144 4.02677 6.49981 3.3375 7.91243 3.1569C8.12173 3.13166 8.33356 3.1751 8.51603 3.28068C8.69851 3.38625 8.84174 3.54826 8.92417 3.74229L11.375 9.45957C11.438 9.60729 11.4636 9.76829 11.4495 9.92827C11.4354 10.0883 11.382 10.2423 11.294 10.3767L9.26467 13.4773C9.17257 13.6169 9.11822 13.778 9.10694 13.9449C9.09565 14.1118 9.12781 14.2787 9.20028 14.4295V14.4295Z" stroke="#565656" stroke-width="1.4" stroke-linecap="round" stroke-linejoin="round"/>
</svg>
