<svg width="167" height="59" viewBox="0 0 167 59" fill="none" xmlns="http://www.w3.org/2000/svg">
<rect y="0.5" width="167" height="58.4898" rx="4" fill="#333333"/>
<g clip-path="url(#clip0_5_365)">
<path d="M25.0652 29.2297L14.7188 18.8545L27.8828 26.4121L25.0652 29.2297ZM12.0176 18.2449C11.408 18.5641 11 19.1449 11 19.9009V40.5889C11 41.3449 11.408 41.9257 12.0176 42.2449L24.05 30.2425L12.0176 18.2449ZM31.9532 28.8217L29.192 27.2233L26.1116 30.2473L29.192 33.2713L32.0096 31.6729C32.8532 31.0021 32.8532 29.4925 31.9532 28.8217ZM14.7188 41.6401L27.8828 34.0825L25.0652 31.2649L14.7188 41.6401Z" fill="#FEFEFF"/>
</g>
<path d="M43.234 13.833C44.07 13.833 44.7923 13.9907 45.401 14.306C46.017 14.614 46.4863 15.0577 46.809 15.637C47.139 16.2163 47.304 16.8983 47.304 17.683C47.304 18.4677 47.139 19.1497 46.809 19.729C46.4863 20.301 46.017 20.741 45.401 21.049C44.7923 21.3497 44.07 21.5 43.234 21.5H40.847V13.833H43.234ZM43.234 20.675C44.224 20.675 44.9793 20.4147 45.5 19.894C46.0207 19.366 46.281 18.629 46.281 17.683C46.281 16.7297 46.017 15.9853 45.489 15.45C44.9683 14.9147 44.2167 14.647 43.234 14.647H41.848V20.675H43.234ZM51.2533 21.599C50.6887 21.599 50.1753 21.4707 49.7133 21.214C49.2587 20.9573 48.8993 20.5943 48.6353 20.125C48.3787 19.6483 48.2503 19.0983 48.2503 18.475C48.2503 17.859 48.3823 17.3163 48.6463 16.847C48.9177 16.3703 49.2843 16.0073 49.7463 15.758C50.2083 15.5013 50.7253 15.373 51.2973 15.373C51.8693 15.373 52.3863 15.5013 52.8483 15.758C53.3103 16.0073 53.6733 16.3667 53.9373 16.836C54.2087 17.3053 54.3443 17.8517 54.3443 18.475C54.3443 19.0983 54.205 19.6483 53.9263 20.125C53.655 20.5943 53.2847 20.9573 52.8153 21.214C52.346 21.4707 51.8253 21.599 51.2533 21.599ZM51.2533 20.719C51.6127 20.719 51.95 20.6347 52.2653 20.466C52.5807 20.2973 52.8337 20.0443 53.0243 19.707C53.2223 19.3697 53.3213 18.959 53.3213 18.475C53.3213 17.991 53.226 17.5803 53.0353 17.243C52.8447 16.9057 52.5953 16.6563 52.2873 16.495C51.9793 16.3263 51.6457 16.242 51.2863 16.242C50.9197 16.242 50.5823 16.3263 50.2743 16.495C49.9737 16.6563 49.7317 16.9057 49.5483 17.243C49.365 17.5803 49.2733 17.991 49.2733 18.475C49.2733 18.9663 49.3613 19.3807 49.5373 19.718C49.7207 20.0553 49.9627 20.3083 50.2633 20.477C50.564 20.6383 50.894 20.719 51.2533 20.719ZM63.6905 15.472L61.8095 21.5H60.7755L59.3235 16.715L57.8715 21.5H56.8375L54.9455 15.472H55.9685L57.3545 20.532L58.8505 15.472H59.8735L61.3365 20.543L62.7005 15.472H63.6905ZM67.6209 15.362C68.3542 15.362 68.9482 15.5857 69.4029 16.033C69.8576 16.473 70.0849 17.111 70.0849 17.947V21.5H69.0949V18.09C69.0949 17.4887 68.9446 17.0303 68.6439 16.715C68.3432 16.3923 67.9326 16.231 67.4119 16.231C66.8839 16.231 66.4622 16.396 66.1469 16.726C65.8389 17.056 65.6849 17.5363 65.6849 18.167V21.5H64.6839V15.472H65.6849V16.33C65.8829 16.022 66.1506 15.7837 66.4879 15.615C66.8326 15.4463 67.2102 15.362 67.6209 15.362ZM72.721 13.36V21.5H71.72V13.36H72.721ZM77.0561 21.599C76.4914 21.599 75.9781 21.4707 75.5161 21.214C75.0614 20.9573 74.7021 20.5943 74.4381 20.125C74.1814 19.6483 74.0531 19.0983 74.0531 18.475C74.0531 17.859 74.1851 17.3163 74.4491 16.847C74.7204 16.3703 75.0871 16.0073 75.5491 15.758C76.0111 15.5013 76.5281 15.373 77.1001 15.373C77.6721 15.373 78.1891 15.5013 78.6511 15.758C79.1131 16.0073 79.4761 16.3667 79.7401 16.836C80.0114 17.3053 80.1471 17.8517 80.1471 18.475C80.1471 19.0983 80.0077 19.6483 79.7291 20.125C79.4577 20.5943 79.0874 20.9573 78.6181 21.214C78.1487 21.4707 77.6281 21.599 77.0561 21.599ZM77.0561 20.719C77.4154 20.719 77.7527 20.6347 78.0681 20.466C78.3834 20.2973 78.6364 20.0443 78.8271 19.707C79.0251 19.3697 79.1241 18.959 79.1241 18.475C79.1241 17.991 79.0287 17.5803 78.8381 17.243C78.6474 16.9057 78.3981 16.6563 78.0901 16.495C77.7821 16.3263 77.4484 16.242 77.0891 16.242C76.7224 16.242 76.3851 16.3263 76.0771 16.495C75.7764 16.6563 75.5344 16.9057 75.3511 17.243C75.1677 17.5803 75.0761 17.991 75.0761 18.475C75.0761 18.9663 75.1641 19.3807 75.3401 19.718C75.5234 20.0553 75.7654 20.3083 76.0661 20.477C76.3667 20.6383 76.6967 20.719 77.0561 20.719ZM81.0892 18.464C81.0892 17.848 81.2139 17.309 81.4632 16.847C81.7125 16.3777 82.0535 16.0147 82.4862 15.758C82.9262 15.5013 83.4139 15.373 83.9492 15.373C84.4772 15.373 84.9355 15.4867 85.3242 15.714C85.7129 15.9413 86.0025 16.2273 86.1932 16.572V15.472H87.2052V21.5H86.1932V20.378C85.9952 20.73 85.6982 21.0233 85.3022 21.258C84.9135 21.4853 84.4589 21.599 83.9382 21.599C83.4029 21.599 82.9189 21.467 82.4862 21.203C82.0535 20.939 81.7125 20.5687 81.4632 20.092C81.2139 19.6153 81.0892 19.0727 81.0892 18.464ZM86.1932 18.475C86.1932 18.0203 86.1015 17.6243 85.9182 17.287C85.7349 16.9497 85.4855 16.693 85.1702 16.517C84.8622 16.3337 84.5212 16.242 84.1472 16.242C83.7732 16.242 83.4322 16.33 83.1242 16.506C82.8162 16.682 82.5705 16.9387 82.3872 17.276C82.2039 17.6133 82.1122 18.0093 82.1122 18.464C82.1122 18.926 82.2039 19.3293 82.3872 19.674C82.5705 20.0113 82.8162 20.2717 83.1242 20.455C83.4322 20.631 83.7732 20.719 84.1472 20.719C84.5212 20.719 84.8622 20.631 85.1702 20.455C85.4855 20.2717 85.7349 20.0113 85.9182 19.674C86.1015 19.3293 86.1932 18.9297 86.1932 18.475ZM88.5228 18.464C88.5228 17.848 88.6475 17.309 88.8968 16.847C89.1461 16.3777 89.4871 16.0147 89.9198 15.758C90.3598 15.5013 90.8511 15.373 91.3938 15.373C91.8631 15.373 92.2995 15.483 92.7028 15.703C93.1061 15.9157 93.4141 16.198 93.6268 16.55V13.36H94.6388V21.5H93.6268V20.367C93.4288 20.7263 93.1355 21.0233 92.7468 21.258C92.3581 21.4853 91.9035 21.599 91.3828 21.599C90.8475 21.599 90.3598 21.467 89.9198 21.203C89.4871 20.939 89.1461 20.5687 88.8968 20.092C88.6475 19.6153 88.5228 19.0727 88.5228 18.464ZM93.6268 18.475C93.6268 18.0203 93.5351 17.6243 93.3518 17.287C93.1685 16.9497 92.9191 16.693 92.6038 16.517C92.2958 16.3337 91.9548 16.242 91.5808 16.242C91.2068 16.242 90.8658 16.33 90.5578 16.506C90.2498 16.682 90.0041 16.9387 89.8208 17.276C89.6375 17.6133 89.5458 18.0093 89.5458 18.464C89.5458 18.926 89.6375 19.3293 89.8208 19.674C90.0041 20.0113 90.2498 20.2717 90.5578 20.455C90.8658 20.631 91.2068 20.719 91.5808 20.719C91.9548 20.719 92.2958 20.631 92.6038 20.455C92.9191 20.2717 93.1685 20.0113 93.3518 19.674C93.5351 19.3293 93.6268 18.9297 93.6268 18.475ZM101.892 21.599C101.327 21.599 100.814 21.4707 100.352 21.214C99.8973 20.9573 99.538 20.5943 99.274 20.125C99.0173 19.6483 98.889 19.0983 98.889 18.475C98.889 17.859 99.021 17.3163 99.285 16.847C99.5563 16.3703 99.923 16.0073 100.385 15.758C100.847 15.5013 101.364 15.373 101.936 15.373C102.508 15.373 103.025 15.5013 103.487 15.758C103.949 16.0073 104.312 16.3667 104.576 16.836C104.847 17.3053 104.983 17.8517 104.983 18.475C104.983 19.0983 104.844 19.6483 104.565 20.125C104.294 20.5943 103.923 20.9573 103.454 21.214C102.985 21.4707 102.464 21.599 101.892 21.599ZM101.892 20.719C102.251 20.719 102.589 20.6347 102.904 20.466C103.219 20.2973 103.472 20.0443 103.663 19.707C103.861 19.3697 103.96 18.959 103.96 18.475C103.96 17.991 103.865 17.5803 103.674 17.243C103.483 16.9057 103.234 16.6563 102.926 16.495C102.618 16.3263 102.284 16.242 101.925 16.242C101.558 16.242 101.221 16.3263 100.913 16.495C100.612 16.6563 100.37 16.9057 100.187 17.243C100.004 17.5803 99.912 17.991 99.912 18.475C99.912 18.9663 100 19.3807 100.176 19.718C100.359 20.0553 100.601 20.3083 100.902 20.477C101.203 20.6383 101.533 20.719 101.892 20.719ZM109.236 15.362C109.969 15.362 110.563 15.5857 111.018 16.033C111.473 16.473 111.7 17.111 111.7 17.947V21.5H110.71V18.09C110.71 17.4887 110.56 17.0303 110.259 16.715C109.958 16.3923 109.548 16.231 109.027 16.231C108.499 16.231 108.077 16.396 107.762 16.726C107.454 17.056 107.3 17.5363 107.3 18.167V21.5H106.299V15.472H107.3V16.33C107.498 16.022 107.766 15.7837 108.103 15.615C108.448 15.4463 108.825 15.362 109.236 15.362ZM117.489 16.297V19.85C117.489 20.1433 117.551 20.3523 117.676 20.477C117.801 20.5943 118.017 20.653 118.325 20.653H119.062V21.5H118.16C117.603 21.5 117.185 21.3717 116.906 21.115C116.627 20.8583 116.488 20.4367 116.488 19.85V16.297H115.707V15.472H116.488V13.954H117.489V15.472H119.062V16.297H117.489ZM123.267 15.362C123.721 15.362 124.132 15.461 124.499 15.659C124.865 15.8497 125.151 16.1393 125.357 16.528C125.569 16.9167 125.676 17.3897 125.676 17.947V21.5H124.686V18.09C124.686 17.4887 124.535 17.0303 124.235 16.715C123.934 16.3923 123.523 16.231 123.003 16.231C122.475 16.231 122.053 16.396 121.738 16.726C121.43 17.056 121.276 17.5363 121.276 18.167V21.5H120.275V13.36H121.276V16.33C121.474 16.022 121.745 15.7837 122.09 15.615C122.442 15.4463 122.834 15.362 123.267 15.362ZM132.811 18.255C132.811 18.4457 132.8 18.6473 132.778 18.86H127.96C127.997 19.454 128.198 19.9197 128.565 20.257C128.939 20.587 129.39 20.752 129.918 20.752C130.351 20.752 130.71 20.653 130.996 20.455C131.289 20.2497 131.495 19.9783 131.612 19.641H132.69C132.529 20.2203 132.206 20.6933 131.722 21.06C131.238 21.4193 130.637 21.599 129.918 21.599C129.346 21.599 128.833 21.4707 128.378 21.214C127.931 20.9573 127.579 20.5943 127.322 20.125C127.065 19.6483 126.937 19.0983 126.937 18.475C126.937 17.8517 127.062 17.3053 127.311 16.836C127.56 16.3667 127.909 16.0073 128.356 15.758C128.811 15.5013 129.331 15.373 129.918 15.373C130.49 15.373 130.996 15.4977 131.436 15.747C131.876 15.9963 132.213 16.341 132.448 16.781C132.69 17.2137 132.811 17.705 132.811 18.255ZM131.777 18.046C131.777 17.6647 131.693 17.3383 131.524 17.067C131.355 16.7883 131.124 16.5793 130.831 16.44C130.545 16.2933 130.226 16.22 129.874 16.22C129.368 16.22 128.935 16.3813 128.576 16.704C128.224 17.0267 128.022 17.474 127.971 18.046H131.777Z" fill="#B3B3B3"/>
<path d="M49.248 34.58C48.96 34.0253 48.56 33.6093 48.048 33.332C47.536 33.044 46.944 32.9 46.272 32.9C45.536 32.9 44.88 33.0653 44.304 33.396C43.728 33.7267 43.2747 34.196 42.944 34.804C42.624 35.412 42.464 36.116 42.464 36.916C42.464 37.716 42.624 38.4253 42.944 39.044C43.2747 39.652 43.728 40.1213 44.304 40.452C44.88 40.7827 45.536 40.948 46.272 40.948C47.264 40.948 48.0693 40.6707 48.688 40.116C49.3067 39.5613 49.6853 38.8093 49.824 37.86H45.648V36.404H51.776V37.828C51.6587 38.692 51.3493 39.4867 50.848 40.212C50.3573 40.9373 49.712 41.5187 48.912 41.956C48.1227 42.3827 47.2427 42.596 46.272 42.596C45.2267 42.596 44.272 42.356 43.408 41.876C42.544 41.3853 41.856 40.708 41.344 39.844C40.8427 38.98 40.592 38.004 40.592 36.916C40.592 35.828 40.8427 34.852 41.344 33.988C41.856 33.124 42.544 32.452 43.408 31.972C44.2827 31.4813 45.2373 31.236 46.272 31.236C47.456 31.236 48.5067 31.5293 49.424 32.116C50.352 32.692 51.024 33.5133 51.44 34.58H49.248ZM57.399 42.644C56.567 42.644 55.815 42.4573 55.143 42.084C54.471 41.7 53.943 41.1667 53.559 40.484C53.175 39.7907 52.983 38.9907 52.983 38.084C52.983 37.188 53.1803 36.3933 53.575 35.7C53.9697 35.0067 54.5083 34.4733 55.191 34.1C55.8737 33.7267 56.6363 33.54 57.479 33.54C58.3217 33.54 59.0843 33.7267 59.767 34.1C60.4497 34.4733 60.9883 35.0067 61.383 35.7C61.7777 36.3933 61.975 37.188 61.975 38.084C61.975 38.98 61.7723 39.7747 61.367 40.468C60.9617 41.1613 60.407 41.7 59.703 42.084C59.0097 42.4573 58.2417 42.644 57.399 42.644ZM57.399 41.06C57.8683 41.06 58.3057 40.948 58.711 40.724C59.127 40.5 59.463 40.164 59.719 39.716C59.975 39.268 60.103 38.724 60.103 38.084C60.103 37.444 59.9803 36.9053 59.735 36.468C59.4897 36.02 59.1643 35.684 58.759 35.46C58.3537 35.236 57.9163 35.124 57.447 35.124C56.9777 35.124 56.5403 35.236 56.135 35.46C55.7403 35.684 55.4257 36.02 55.191 36.468C54.9563 36.9053 54.839 37.444 54.839 38.084C54.839 39.0333 55.079 39.7693 55.559 40.292C56.0497 40.804 56.663 41.06 57.399 41.06ZM67.6021 42.644C66.7701 42.644 66.0181 42.4573 65.3461 42.084C64.6741 41.7 64.1461 41.1667 63.7621 40.484C63.3781 39.7907 63.1861 38.9907 63.1861 38.084C63.1861 37.188 63.3835 36.3933 63.7781 35.7C64.1728 35.0067 64.7115 34.4733 65.3941 34.1C66.0768 33.7267 66.8395 33.54 67.6821 33.54C68.5248 33.54 69.2875 33.7267 69.9701 34.1C70.6528 34.4733 71.1915 35.0067 71.5861 35.7C71.9808 36.3933 72.1781 37.188 72.1781 38.084C72.1781 38.98 71.9755 39.7747 71.5701 40.468C71.1648 41.1613 70.6101 41.7 69.9061 42.084C69.2128 42.4573 68.4448 42.644 67.6021 42.644ZM67.6021 41.06C68.0715 41.06 68.5088 40.948 68.9141 40.724C69.3301 40.5 69.6661 40.164 69.9221 39.716C70.1781 39.268 70.3061 38.724 70.3061 38.084C70.3061 37.444 70.1835 36.9053 69.9381 36.468C69.6928 36.02 69.3675 35.684 68.9621 35.46C68.5568 35.236 68.1195 35.124 67.6501 35.124C67.1808 35.124 66.7435 35.236 66.3381 35.46C65.9435 35.684 65.6288 36.02 65.3941 36.468C65.1595 36.9053 65.0421 37.444 65.0421 38.084C65.0421 39.0333 65.2821 39.7693 65.7621 40.292C66.2528 40.804 66.8661 41.06 67.6021 41.06ZM77.5333 33.54C78.2159 33.54 78.8186 33.6787 79.3413 33.956C79.8746 34.2227 80.2906 34.5587 80.5893 34.964V33.684H82.4293V42.644C82.4293 43.4547 82.2586 44.1747 81.9173 44.804C81.5759 45.444 81.0799 45.9453 80.4293 46.308C79.7893 46.6707 79.0213 46.852 78.1253 46.852C76.9306 46.852 75.9386 46.5693 75.1493 46.004C74.3599 45.4493 73.9119 44.692 73.8053 43.732H75.6133C75.7519 44.1907 76.0453 44.5587 76.4933 44.836C76.9519 45.124 77.4959 45.268 78.1253 45.268C78.8613 45.268 79.4533 45.044 79.9013 44.596C80.3599 44.148 80.5893 43.4973 80.5893 42.644V41.172C80.2799 41.588 79.8586 41.94 79.3253 42.228C78.8026 42.5053 78.2053 42.644 77.5333 42.644C76.7653 42.644 76.0613 42.452 75.4213 42.068C74.7919 41.6733 74.2906 41.1293 73.9173 40.436C73.5546 39.732 73.3733 38.9373 73.3733 38.052C73.3733 37.1667 73.5546 36.3827 73.9173 35.7C74.2906 35.0173 74.7919 34.4893 75.4213 34.116C76.0613 33.732 76.7653 33.54 77.5333 33.54ZM80.5893 38.084C80.5893 37.476 80.4613 36.948 80.2053 36.5C79.9599 36.052 79.6346 35.7107 79.2293 35.476C78.8239 35.2413 78.3866 35.124 77.9173 35.124C77.4479 35.124 77.0106 35.2413 76.6053 35.476C76.1999 35.7 75.8693 36.036 75.6133 36.484C75.3679 36.9213 75.2453 37.444 75.2453 38.052C75.2453 38.66 75.3679 39.1933 75.6133 39.652C75.8693 40.1107 76.1999 40.4627 76.6053 40.708C77.0213 40.9427 77.4586 41.06 77.9173 41.06C78.3866 41.06 78.8239 40.9427 79.2293 40.708C79.6346 40.4733 79.9599 40.132 80.2053 39.684C80.4613 39.2253 80.5893 38.692 80.5893 38.084ZM86.649 30.66V42.5H84.825V30.66H86.649ZM97.1238 37.876C97.1238 38.2067 97.1024 38.5053 97.0598 38.772H90.3238C90.3771 39.476 90.6384 40.0413 91.1078 40.468C91.5771 40.8947 92.1531 41.108 92.8358 41.108C93.8171 41.108 94.5104 40.6973 94.9158 39.876H96.8837C96.6171 40.6867 96.1318 41.3533 95.4278 41.876C94.7344 42.388 93.8704 42.644 92.8358 42.644C91.9931 42.644 91.2358 42.4573 90.5638 42.084C89.9024 41.7 89.3798 41.1667 88.9958 40.484C88.6224 39.7907 88.4358 38.9907 88.4358 38.084C88.4358 37.1773 88.6171 36.3827 88.9798 35.7C89.3531 35.0067 89.8704 34.4733 90.5318 34.1C91.2038 33.7267 91.9718 33.54 92.8358 33.54C93.6678 33.54 94.4091 33.7213 95.0598 34.084C95.7104 34.4467 96.2171 34.9587 96.5798 35.62C96.9424 36.2707 97.1238 37.0227 97.1238 37.876ZM95.2198 37.3C95.2091 36.628 94.9691 36.0893 94.4998 35.684C94.0304 35.2787 93.4491 35.076 92.7558 35.076C92.1264 35.076 91.5878 35.2787 91.1398 35.684C90.6918 36.0787 90.4251 36.6173 90.3398 37.3H95.2198ZM104.899 34.98C105.208 34.5747 105.63 34.2333 106.163 33.956C106.696 33.6787 107.299 33.54 107.971 33.54C108.739 33.54 109.438 33.732 110.067 34.116C110.707 34.4893 111.208 35.0173 111.571 35.7C111.934 36.3827 112.115 37.1667 112.115 38.052C112.115 38.9373 111.934 39.732 111.571 40.436C111.208 41.1293 110.707 41.6733 110.067 42.068C109.438 42.452 108.739 42.644 107.971 42.644C107.299 42.644 106.702 42.5107 106.179 42.244C105.656 41.9667 105.23 41.6253 104.899 41.22V46.692H103.075V33.684H104.899V34.98ZM110.259 38.052C110.259 37.444 110.131 36.9213 109.875 36.484C109.63 36.036 109.299 35.7 108.883 35.476C108.478 35.2413 108.04 35.124 107.571 35.124C107.112 35.124 106.675 35.2413 106.259 35.476C105.854 35.7107 105.523 36.052 105.267 36.5C105.022 36.948 104.899 37.476 104.899 38.084C104.899 38.692 105.022 39.2253 105.267 39.684C105.523 40.132 105.854 40.4733 106.259 40.708C106.675 40.9427 107.112 41.06 107.571 41.06C108.04 41.06 108.478 40.9427 108.883 40.708C109.299 40.4627 109.63 40.1107 109.875 39.652C110.131 39.1933 110.259 38.66 110.259 38.052ZM115.743 30.66V42.5H113.919V30.66H115.743ZM117.53 38.052C117.53 37.1667 117.711 36.3827 118.074 35.7C118.447 35.0173 118.948 34.4893 119.578 34.116C120.218 33.732 120.922 33.54 121.69 33.54C122.383 33.54 122.986 33.6787 123.498 33.956C124.02 34.2227 124.436 34.5587 124.746 34.964V33.684H126.586V42.5H124.746V41.188C124.436 41.604 124.015 41.9507 123.482 42.228C122.948 42.5053 122.34 42.644 121.658 42.644C120.9 42.644 120.207 42.452 119.578 42.068C118.948 41.6733 118.447 41.1293 118.074 40.436C117.711 39.732 117.53 38.9373 117.53 38.052ZM124.746 38.084C124.746 37.476 124.618 36.948 124.362 36.5C124.116 36.052 123.791 35.7107 123.386 35.476C122.98 35.2413 122.543 35.124 122.074 35.124C121.604 35.124 121.167 35.2413 120.762 35.476C120.356 35.7 120.026 36.036 119.77 36.484C119.524 36.9213 119.402 37.444 119.402 38.052C119.402 38.66 119.524 39.1933 119.77 39.652C120.026 40.1107 120.356 40.4627 120.762 40.708C121.178 40.9427 121.615 41.06 122.074 41.06C122.543 41.06 122.98 40.9427 123.386 40.708C123.791 40.4733 124.116 40.132 124.362 39.684C124.618 39.2253 124.746 38.692 124.746 38.084ZM136.917 33.684L131.509 46.644H129.621L131.413 42.356L127.941 33.684H129.973L132.453 40.404L135.029 33.684H136.917Z" fill="#FEFEFF"/>
<defs>
<clipPath id="clip0_5_365">
<rect width="24" height="24" fill="white" transform="translate(10 17.7449)"/>
</clipPath>
</defs>
</svg>
