<svg width="54" height="54" viewBox="0 0 54 54" fill="none" xmlns="http://www.w3.org/2000/svg">
<circle cx="26.8709" cy="27.081" r="26.4355" fill="#4196E3" fill-opacity="0.12"/>
<path d="M27.8773 15.8415C29.0791 16.0669 29.928 17.1478 29.8622 18.3689L29.7686 20.1032C31.8709 20.9762 33.4779 22.7664 34.1198 24.9504L35.8541 25.0439C37.0751 25.1097 38.0585 26.07 38.1534 27.2891C38.1741 27.5559 38.1597 27.8243 38.1103 28.0873C37.8849 29.2892 36.804 30.1381 35.583 30.0722L33.8486 29.9787C32.9756 32.081 31.1854 33.688 29.0014 34.3299L28.9079 36.0642C28.8421 37.2852 27.8819 38.2686 26.6627 38.3635C26.3959 38.3842 26.1275 38.3698 25.8645 38.3204C24.6626 38.095 23.8137 37.0141 23.8796 35.793L23.9731 34.0587C21.8708 33.1857 20.2639 31.3955 19.6219 29.2115L17.8876 29.118C16.6666 29.0522 15.6832 28.092 15.5884 26.8728C15.5676 26.606 15.5821 26.3376 15.6314 26.0746C15.8568 24.8727 16.9377 24.0238 18.1588 24.0897L19.8931 24.1832C20.7662 22.0809 22.5563 20.4739 24.7403 19.832L24.8338 18.0977C24.8997 16.8767 25.8599 15.8933 27.079 15.7984C27.3458 15.7777 27.6142 15.7921 27.8773 15.8415Z" stroke="#4196E3" stroke-width="1.98266" stroke-linecap="round" stroke-linejoin="round"/>
<path d="M23.736 26.9131C23.8293 25.1815 25.3088 23.8534 27.0404 23.9468C28.772 24.0402 30.1 25.5196 30.0067 27.2512C29.9133 28.9829 28.4338 30.3109 26.7022 30.2175C24.9706 30.1241 23.6426 28.6447 23.736 26.9131Z" stroke="#4196E3" stroke-width="1.98266"/>
</svg>
