<svg width="38" height="17" viewBox="0 0 38 17" fill="none" xmlns="http://www.w3.org/2000/svg">
<path d="M3.02974 6.66756C3.02974 6.28136 3.35971 6.13282 3.90622 6.13282C4.6899 6.13282 5.67982 6.36058 6.4635 6.76659V4.43948C5.60764 4.11269 4.76209 3.98396 3.90622 3.98396C1.81297 3.98396 0.420898 5.03363 0.420898 6.78639C0.420898 9.51951 4.33931 9.0838 4.33931 10.2622C4.33931 10.7177 3.92685 10.8663 3.3494 10.8663C2.49353 10.8663 1.4005 10.5296 0.534326 10.0741V12.4309C1.49331 12.827 2.4626 12.9953 3.3494 12.9953C5.49421 12.9953 6.96877 11.9754 6.96877 10.2028C6.95846 7.25182 3.02974 7.77665 3.02974 6.66756ZM10.0004 2.00344L7.48435 2.51837L7.47404 10.4504C7.47404 11.9159 8.61863 12.9953 10.1447 12.9953C10.9903 12.9953 11.609 12.8468 11.9493 12.6685V10.6583C11.6193 10.787 9.99007 11.2426 9.99007 9.77698V6.26156H11.9493V4.1523H9.99007L10.0004 2.00344ZM15.1562 4.8851L14.9912 4.1523H12.7639V12.8171H15.3418V6.94484C15.9502 6.18234 16.9813 6.32097 17.301 6.4299V4.1523C16.971 4.03347 15.7646 3.81561 15.1562 4.8851ZM17.93 4.1523H20.5182V12.8171H17.93V4.1523ZM17.93 3.3997L20.5182 2.86496V0.854736L17.93 1.37957V3.3997ZM25.9009 3.98396C24.8903 3.98396 24.2407 4.43948 23.8798 4.75636L23.7458 4.1424H21.4772V15.6888L24.0551 15.164L24.0654 12.3616C24.4366 12.619 24.9832 12.9854 25.8906 12.9854C27.7363 12.9854 29.4171 11.5594 29.4171 8.42032C29.4068 5.54857 27.7054 3.98396 25.9009 3.98396ZM25.2822 10.8069C24.6738 10.8069 24.3129 10.5989 24.0654 10.3414L24.0551 6.66756C24.3232 6.38039 24.6944 6.18234 25.2822 6.18234C26.2205 6.18234 26.8702 7.1924 26.8702 8.48964C26.8702 9.81659 26.2309 10.8069 25.2822 10.8069ZM37.5427 8.51935C37.5427 5.98428 36.264 3.98396 33.8202 3.98396C31.366 3.98396 29.8812 5.98428 29.8812 8.49954C29.8812 11.4802 31.6341 12.9854 34.1502 12.9854C35.3772 12.9854 36.3053 12.7181 37.0065 12.3418V10.3612C36.3053 10.6979 35.501 10.9059 34.4801 10.9059C33.4799 10.9059 32.5931 10.5692 32.4797 9.40068H37.5221C37.5221 9.27195 37.5427 8.75701 37.5427 8.51935ZM32.4488 7.5786C32.4488 6.45961 33.1603 5.99419 33.8099 5.99419C34.4389 5.99419 35.1091 6.45961 35.1091 7.5786H32.4488Z" fill="white"/>
</svg>
